<svg width="80" height="82" viewBox="0 0 80 82" fill="none" xmlns="http://www.w3.org/2000/svg">
<path d="M79.788 31.5532C79.748 31.7592 79.728 31.9712 79.663 32.1692C79.544 32.5362 79.416 32.9032 79.261 33.2572C78.869 34.1462 78.695 35.0662 78.786 36.0372C78.814 36.3402 78.835 36.6472 78.828 36.9512C78.821 37.2782 78.804 37.6092 78.742 37.9282C78.692 38.1862 78.685 38.4112 78.854 38.6232C79.228 39.0892 79.263 39.6122 79.174 40.1862C78.971 41.4922 78.619 42.7542 78.165 43.9902C78.077 44.2302 77.968 44.4782 77.808 44.6732C77.56 44.9762 77.569 45.2952 77.643 45.6342C77.755 46.1502 77.94 46.6582 77.982 47.1792C78.099 48.6502 78.361 50.1102 78.273 51.6012C78.22 52.5022 77.957 53.2742 77.336 53.9242C77.199 54.0692 77.056 54.2082 76.912 54.3462C76.404 54.8342 75.898 55.3232 75.383 55.8042C75.1 56.0682 74.809 56.3242 74.509 56.5692C74.277 56.7582 74.089 56.9742 73.952 57.2402C73.726 57.6782 73.496 58.1132 73.259 58.5452C73.003 59.0122 72.837 59.5062 72.733 60.0302C72.589 60.7552 72.411 61.4732 72.235 62.1912C72.168 62.4632 72.072 62.7302 71.977 62.9952C71.703 63.7562 71.392 64.5052 71.152 65.2772C70.866 66.1912 70.33 66.9122 69.573 67.4652C69.005 67.8792 68.4 68.2432 67.807 68.6202C67.539 68.7892 67.254 68.9302 66.984 69.0962C66.501 69.3922 66.084 69.7502 65.733 70.2102C65.285 70.7962 64.766 71.3272 64.276 71.8822C64.2 71.9692 64.121 72.0542 64.026 72.1592C64.317 72.4342 64.24 72.7162 64.089 73.0272C63.848 73.5212 63.632 74.0292 63.42 74.5372C63.018 75.4972 62.352 76.1622 61.319 76.3922C61.002 76.4632 60.667 76.4692 60.34 76.4702C60.012 76.4712 59.683 76.4372 59.356 76.4052C58.618 76.3332 57.904 76.4332 57.208 76.6802C56.888 76.7942 56.57 76.9172 56.254 77.0442C55.828 77.2162 55.396 77.3652 54.931 77.3852C54.719 77.3942 54.541 77.4582 54.423 77.6442C54.064 78.2102 53.51 78.3992 52.88 78.4972C51.574 78.7012 50.263 78.7402 48.947 78.6862C48.715 78.6762 48.476 78.6332 48.259 78.5532C48.03 78.4682 47.824 78.4912 47.611 78.5672C47.534 78.5942 47.455 78.6262 47.39 78.6742C46.267 79.5172 44.933 79.9442 43.678 80.5192C42.938 80.8582 42.126 81.0502 41.334 81.2622C40.865 81.3882 40.371 81.3622 39.912 81.1802C39.499 81.0172 39.094 80.8282 38.698 80.6262C38.144 80.3452 37.6 80.0442 37.054 79.7462C36.756 79.5832 36.449 79.4292 36.172 79.2342C35.777 78.9562 35.353 78.7962 34.875 78.7342C34.306 78.6602 33.742 78.5432 33.174 78.4532C33.025 78.4292 32.869 78.4172 32.719 78.4302C31.877 78.5012 31.036 78.5922 30.194 78.6562C29.785 78.6872 29.373 78.6882 28.963 78.6782C28.247 78.6622 27.532 78.6272 26.817 78.6012C26.747 78.5982 26.676 78.5972 26.606 78.5992C25.677 78.6242 24.842 78.3292 24.104 77.7912C23.507 77.3572 22.949 76.8712 22.379 76.4012C22.171 76.2292 21.983 76.0332 21.778 75.8582C21.329 75.4752 20.846 75.1692 20.277 74.9692C19.57 74.7222 18.894 74.3862 18.205 74.0872C18.12 74.0502 18.036 74.0082 17.932 73.9592C17.893 74.0012 17.852 74.0382 17.82 74.0812C17.682 74.2762 17.491 74.3302 17.264 74.3052C16.612 74.2352 15.957 74.1772 15.306 74.0972C14.08 73.9462 13.209 73.3152 12.782 72.1402C12.631 71.7222 12.532 71.2842 12.43 70.8512C12.238 70.0352 11.876 69.3082 11.341 68.6652C11.139 68.4212 10.922 68.1862 10.743 67.9262C10.517 67.6002 10.303 67.2622 10.124 66.9082C10.026 66.7152 9.918 66.5652 9.713 66.5122C9.06 66.3452 8.705 65.8792 8.426 65.3062C7.808 64.0362 7.29 62.7312 6.98 61.3492C6.952 61.2242 6.928 61.0902 6.942 60.9652C6.983 60.6072 6.801 60.3612 6.561 60.1402C6.44 60.0292 6.299 59.9402 6.181 59.8262C5.783 59.4462 5.383 59.0672 5 58.6712C4.658 58.3172 4.349 57.9302 4.004 57.5782C3.325 56.8852 2.8 56.0782 2.277 55.2702C1.884 54.6622 1.801 53.9782 1.887 53.2712C1.923 52.9802 1.985 52.6932 2.036 52.4042C2.141 51.8152 2.243 51.2262 2.353 50.6382C2.416 50.3042 2.467 49.9642 2.568 49.6422C2.718 49.1682 2.728 48.7022 2.636 48.2182C2.547 47.7462 2.511 47.2632 2.42 46.7922C2.358 46.4722 2.265 46.1542 2.144 45.8522C1.79 44.9702 1.411 44.0982 1.052 43.2182C0.964002 43.0022 0.917002 42.7692 0.852002 42.5442C0.657002 41.8682 0.495002 41.1812 0.260002 40.5192C-0.0889978 39.5342 -0.0799978 38.5572 0.247002 37.5842C0.468002 36.9302 0.742002 36.2932 1 35.6512C1.118 35.3582 1.262 35.0742 1.381 34.7812C1.585 34.2782 1.701 33.7642 1.712 33.2102C1.726 32.5082 1.827 31.8072 1.892 31.1062C1.904 30.9672 1.924 30.8292 1.944 30.6632C1.502 30.5662 1.421 30.2312 1.361 29.8512C1.285 29.3652 1.169 28.8852 1.05 28.4072C0.881002 27.7272 0.879002 27.0612 1.15 26.4052C1.352 25.9152 1.666 25.5082 2.094 25.2012C2.446 24.9482 2.813 24.7132 3.184 24.4892C3.922 24.0422 4.518 23.4572 4.971 22.7242C5.12 22.4842 5.279 22.2522 5.429 22.0132C5.655 21.6532 5.908 21.3152 6.246 21.0522C6.408 20.9262 6.504 20.7712 6.489 20.5722C6.44 19.8702 6.802 19.3782 7.274 18.9182C8.186 18.0312 9.175 17.2412 10.235 16.5402C10.448 16.3992 10.684 16.2692 10.928 16.2032C11.25 16.1162 11.457 15.9092 11.548 15.6322C11.895 14.5842 12.509 13.6782 13.022 12.7172C13.5 11.8192 14.097 11.0112 14.706 10.2062C15.274 9.4552 16.053 9.0912 16.956 8.9632C18.002 8.8152 19.047 8.6432 20.098 8.5692C20.8 8.5202 21.433 8.3562 22.024 7.9902C22.153 7.9102 22.301 7.8632 22.44 7.8002C22.987 7.5532 23.505 7.2682 23.951 6.8492C24.48 6.3502 25.038 5.8812 25.595 5.4122C25.863 5.1862 26.152 4.9812 26.442 4.7822C27.061 4.3582 27.709 3.9722 28.305 3.5182C29.158 2.8682 30.117 2.5822 31.166 2.6082C31.939 2.6262 32.71 2.7172 33.483 2.7662C33.962 2.7962 34.443 2.8112 34.924 2.8242C35.027 2.8272 35.137 2.8082 35.235 2.7752C36.095 2.4882 36.981 2.3112 37.871 2.1522C37.973 2.1342 38.074 2.1062 38.198 2.0772C38.137 1.6532 38.397 1.4712 38.725 1.3072C39.144 1.0972 39.549 0.856203 39.944 0.605203C40.325 0.363203 40.72 0.163203 41.161 0.0682034C41.882 -0.0877966 42.566 0.0242034 43.196 0.400203C43.487 0.574203 43.774 0.769203 44.017 1.0032C44.916 1.8672 45.977 2.4012 47.191 2.6552C47.733 2.7682 48.254 2.9402 48.729 3.2412C48.825 3.3022 48.97 3.2972 49.094 3.3022C49.173 3.3052 49.258 3.2802 49.334 3.2532C49.821 3.0782 50.272 3.1722 50.726 3.3932C51.967 3.9992 53.107 4.7592 54.186 5.6142C54.369 5.7592 54.557 5.9202 54.676 6.1152C54.896 6.4722 55.226 6.5662 55.598 6.5972C55.902 6.6232 56.212 6.6042 56.511 6.6572C57.215 6.7802 57.91 6.9592 58.615 7.0702C59.585 7.2212 60.504 7.5322 61.428 7.8432C62.258 8.1222 62.89 8.6222 63.312 9.3892C63.335 9.4302 63.362 9.4692 63.382 9.5112C63.915 10.6472 64.456 11.7802 64.973 12.9222C65.111 13.2272 65.265 13.5062 65.503 13.7422C65.811 14.0482 66.112 14.3612 66.409 14.6782C66.789 15.0842 67.213 15.4252 67.702 15.6972C68.337 16.0512 68.957 16.4352 69.575 16.8192C69.843 16.9852 70.097 17.1772 70.348 17.3712C70.96 17.8442 71.548 18.3532 72.181 18.7962C73.018 19.3822 73.536 20.1732 73.872 21.1162C74.164 21.9392 74.316 22.7932 74.501 23.6412C74.589 24.0412 74.721 24.4312 74.84 24.8242C74.871 24.9232 74.918 25.0222 74.98 25.1062C75.545 25.8742 76.004 26.7062 76.458 27.5422C76.486 27.5942 76.517 27.6432 76.557 27.7122C76.61 27.7022 76.665 27.6972 76.716 27.6812C76.941 27.6132 77.127 27.6752 77.298 27.8312C77.792 28.2812 78.298 28.7192 78.785 29.1762C79.304 29.6622 79.682 30.2292 79.73 30.9682C79.736 31.0472 79.768 31.1232 79.788 31.2012C79.788 31.3192 79.788 31.4362 79.788 31.5532ZM46.736 77.4382C47.473 77.2082 48.218 76.9982 48.947 76.7432C49.822 76.4372 50.68 76.0902 51.581 75.8562C53.051 75.4762 54.553 75.2852 56.044 75.0222C56.527 74.9372 57.011 74.8362 57.481 74.6972C57.811 74.5992 58.098 74.3532 58.477 74.4222C58.519 74.4302 58.566 74.3932 58.612 74.3862C59.058 74.3202 59.408 74.0552 59.782 73.8382C60.326 73.5222 60.683 73.0822 60.829 72.4562C60.889 72.2012 61.03 71.9542 61.178 71.7332C61.34 71.4912 61.527 71.2532 61.748 71.0662C62.203 70.6832 62.5 70.2042 62.722 69.6652C62.776 69.5352 62.838 69.4092 62.901 69.2832C63.321 68.4442 63.857 67.7032 64.605 67.1132C64.911 66.8712 65.148 66.5332 65.389 66.2182C65.553 66.0062 65.678 65.7622 65.806 65.5252C66.142 64.9052 66.608 64.4062 67.162 63.9722C67.454 63.7432 67.708 63.4582 67.941 63.1672C68.219 62.8192 68.462 62.4432 68.709 62.0722C69.414 61.0162 70.083 59.9432 70.43 58.7002C70.629 57.9862 70.967 57.3252 71.335 56.6802C71.865 55.7502 72.64 55.1262 73.658 54.7972C73.777 54.7592 73.911 54.7042 73.989 54.6142C74.527 53.9942 75.052 53.3712 75.339 52.5722C75.505 52.1102 75.598 51.6512 75.62 51.1682C75.633 50.8872 75.648 50.6052 75.676 50.3252C75.748 49.6012 75.827 48.8772 75.904 48.1542C75.93 47.9142 75.907 47.6932 75.74 47.4952C75.62 47.3522 75.573 47.1622 75.698 47.0052C75.843 46.8232 75.854 46.6242 75.857 46.4112C75.86 46.2072 75.898 46.0072 76.104 45.9002C76.235 45.8332 76.236 45.7142 76.239 45.5982C76.255 44.9412 76.281 44.2842 76.278 43.6282C76.273 42.7712 76.21 41.9142 76.233 41.0582C76.275 39.5062 76.567 37.9802 76.795 36.4482C76.88 35.8812 76.937 35.3082 76.963 34.7362C76.978 34.3922 76.822 34.0402 77.015 33.7032C77.031 33.6752 77.017 33.6332 77.022 33.5982C77.102 32.9962 76.927 32.4252 76.735 31.8782C76.599 31.4902 76.338 31.1502 75.949 30.9162C75.685 30.7572 75.45 30.5222 75.263 30.2752C75.045 29.9882 74.874 29.6602 74.716 29.3342C74.56 29.0102 74.365 28.7272 74.099 28.4872C73.855 28.2672 73.616 28.0412 73.383 27.8092C72.762 27.1872 72.273 26.4832 71.963 25.6492C71.834 25.3042 71.614 24.9862 71.403 24.6792C71.23 24.4302 71.015 24.2082 70.806 23.9862C70.331 23.4812 69.981 22.9052 69.774 22.2432C69.632 21.7872 69.373 21.3982 69.083 21.0252C68.86 20.7382 68.647 20.4432 68.421 20.1582C67.639 19.1712 66.835 18.2102 65.77 17.5022C65.172 17.1042 64.663 16.5972 64.171 16.0732C63.412 15.2622 63.041 14.3062 63.03 13.1992C63.029 13.0432 62.982 12.8712 62.903 12.7382C62.686 12.3762 62.469 12.0072 62.201 11.6842C61.719 11.1032 61.161 10.6112 60.44 10.3232C59.667 10.0132 58.908 9.6692 58.143 9.3392C57.916 9.2422 57.689 9.1462 57.464 9.0472C57.223 8.9412 56.988 8.8692 56.719 8.9822C56.547 9.0542 56.354 9.0152 56.244 8.8522C56.122 8.6712 55.953 8.5932 55.76 8.5322C55.552 8.4652 55.38 8.3672 55.321 8.1222C55.303 8.0442 55.191 7.9622 55.105 7.9312C54.376 7.6732 53.654 7.3802 52.908 7.1862C51.31 6.7692 49.781 6.1832 48.308 5.4432C47.522 5.0472 46.738 4.6472 45.95 4.2542C45.709 4.1342 45.467 4.0052 45.211 3.9262C44.758 3.7862 44.282 3.7412 43.866 3.4612C43.472 3.1952 42.985 3.2512 42.531 3.2112C41.956 3.1592 41.454 3.3072 41.004 3.6882C40.795 3.8652 40.53 3.9952 40.27 4.0902C39.975 4.1982 39.66 4.2802 39.349 4.3072C38.793 4.3542 38.302 4.5502 37.838 4.8392C37.709 4.9202 37.572 4.9892 37.436 5.0592C36.626 5.4792 35.784 5.7892 34.856 5.8052C34.331 5.8152 33.838 5.9662 33.363 6.1802C33.191 6.2572 33.016 6.3252 32.847 6.4062C32.243 6.6912 31.612 6.8482 30.941 6.8422C30.429 6.8382 29.942 6.9612 29.466 7.1422C29.17 7.2542 28.868 7.3502 28.57 7.4582C27.366 7.8972 26.179 8.3662 25.156 9.1732C24.611 9.6032 23.995 9.9242 23.37 10.2272C22.338 10.7262 21.285 10.8212 20.189 10.4602C20.042 10.4122 19.861 10.4082 19.709 10.4432C19.287 10.5422 18.857 10.6352 18.458 10.7992C17.773 11.0812 17.142 11.4552 16.653 12.0422C16.112 12.6912 15.541 13.3152 14.984 13.9502C14.821 14.1352 14.662 14.3242 14.497 14.5072C14.337 14.6862 14.219 14.8722 14.235 15.1342C14.247 15.3312 14.164 15.5202 13.957 15.5782C13.745 15.6372 13.624 15.7802 13.505 15.9422C13.375 16.1192 13.224 16.2492 12.975 16.2252C12.904 16.2182 12.801 16.2862 12.752 16.3502C12.294 16.9452 11.806 17.5212 11.4 18.1502C10.677 19.2682 9.899 20.3402 8.985 21.3072C8.17 22.1682 7.329 23.0052 6.497 23.8502C6.118 24.2362 5.746 24.6252 5.517 25.1282C5.466 25.2412 5.375 25.3482 5.276 25.4222C4.978 25.6462 4.76 25.9292 4.61 26.2652C4.509 26.4892 4.413 26.7172 4.325 26.9472C4.135 27.4472 4.11 27.9462 4.333 28.4502C4.403 28.6082 4.443 28.7842 4.472 28.9562C4.56 29.4872 4.476 30.0102 4.373 30.5292C4.314 30.8232 4.309 31.1102 4.374 31.4022C4.424 31.6312 4.465 31.8622 4.508 32.0932C4.69 33.0852 4.74 34.0712 4.435 35.0542C4.272 35.5792 4.292 36.1232 4.366 36.6622C4.484 37.5212 4.468 38.3652 4.192 39.2022C4.092 39.5082 4.071 39.8472 4.059 40.1722C4.044 40.5942 4.073 41.0172 4.086 41.4402C4.124 42.7332 4.217 44.0142 4.657 45.2532C4.852 45.8022 4.95 46.3882 5.062 46.9622C5.306 48.2102 5.101 49.3662 4.322 50.3992C4.249 50.4962 4.2 50.6312 4.19 50.7522C4.156 51.1842 4.106 51.6212 4.132 52.0522C4.176 52.8052 4.339 53.5322 4.746 54.1912C5.202 54.9302 5.635 55.6822 6.079 56.4292C6.205 56.6412 6.336 56.8502 6.46 57.0622C6.576 57.2612 6.715 57.4182 6.956 57.4762C7.153 57.5242 7.298 57.6632 7.288 57.8782C7.279 58.0852 7.366 58.2362 7.48 58.3902C7.6 58.5532 7.715 58.7372 7.618 58.9422C7.541 59.1052 7.616 59.2062 7.691 59.3262C8.143 60.0552 8.633 60.7572 9.187 61.4142C10.26 62.6882 11.107 64.1062 11.855 65.5882C12.268 66.4052 12.698 67.2142 13.126 68.0232C13.214 68.1872 13.319 68.3472 13.438 68.4892C13.668 68.7652 13.98 68.9812 14.036 69.3762C14.042 69.4172 14.093 69.4502 14.114 69.4922C14.308 69.8832 14.656 70.1312 14.968 70.4142C15.444 70.8472 15.982 71.0552 16.635 71.0052C16.908 70.9852 17.199 71.0442 17.464 71.1252C17.776 71.2202 18.085 71.3502 18.365 71.5152C18.772 71.7552 19.203 71.8742 19.664 71.9182C19.886 71.9402 20.108 71.9642 20.328 72.0012C21.108 72.1292 21.881 72.2982 22.545 72.7512C23.171 73.1762 23.853 73.4292 24.591 73.5572C25.366 73.6912 26.073 73.9832 26.716 74.4462C26.969 74.6272 27.268 74.7572 27.563 74.8642C27.992 75.0212 28.435 75.1402 28.875 75.2672C30.107 75.6202 31.343 75.9132 32.645 75.8912C33.343 75.8792 34.048 75.9892 34.742 76.0972C35.742 76.2522 36.594 76.7182 37.208 77.5312C37.464 77.8702 37.763 78.0892 38.153 78.2102C38.589 78.3462 39.018 78.5292 39.464 78.6012C40.197 78.7192 40.937 78.7112 41.649 78.4332C41.779 78.3822 41.921 78.3612 42.059 78.3312C42.861 78.1562 43.664 77.9822 44.467 77.8102C44.669 77.7662 44.838 77.6852 44.955 77.5002C45.09 77.2852 45.29 77.2372 45.538 77.2922C45.666 77.3202 45.815 77.3122 45.942 77.2752C46.228 77.1902 46.496 77.1512 46.736 77.4382Z" fill="#AC6B34"/>
<path d="M44.984 75.1952C44.879 75.1901 44.773 75.1901 44.668 75.1781C43.954 75.0972 43.242 75.0921 42.526 75.1771C41.83 75.2601 41.143 75.1441 40.463 75.0071C39.901 74.8932 39.34 74.7642 38.786 74.6171C38.551 74.5542 38.323 74.4442 38.11 74.3242C37.361 73.9022 36.553 73.6682 35.71 73.5541C34.675 73.4141 33.632 73.3261 32.602 73.1581C31.306 72.9461 30.019 72.6761 28.728 72.4321C27.765 72.2501 26.849 71.9271 25.957 71.5261C25.402 71.2761 24.917 70.9451 24.53 70.4661C24.127 69.9681 23.602 69.6391 22.987 69.4681C22.213 69.2521 21.498 68.9251 20.803 68.5141C20.118 68.1091 19.394 67.7711 18.731 67.3221C18.542 67.1941 18.303 67.1331 18.08 67.0631C17.768 66.9651 17.5 66.8091 17.293 66.5561C17.096 66.3151 16.849 66.1451 16.586 65.9841C16.106 65.6901 15.631 65.3841 15.172 65.0591C14.985 64.9261 14.836 64.7361 14.684 64.5591C14.44 64.2741 14.227 63.9591 13.966 63.6911C13.161 62.8631 12.453 61.9581 11.791 61.0161C11.136 60.0841 10.492 59.1451 9.835 58.2151C9.415 57.6201 9.139 56.9651 8.994 56.2561C8.875 55.6781 8.697 55.1241 8.446 54.5881C8.196 54.0531 8.055 53.4841 7.981 52.8981C7.931 52.5021 7.865 52.1081 7.809 51.7131C7.732 51.1631 7.717 50.6081 7.822 50.0641C7.995 49.1621 7.978 48.2651 7.813 47.3691C7.589 46.1571 7.33 44.9521 7.131 43.7361C6.981 42.8221 6.889 41.8981 6.793 40.9761C6.726 40.3231 6.66 39.6661 6.659 39.0101C6.658 38.4021 6.73 37.7931 6.796 37.1871C6.841 36.7751 6.98 36.3851 7.211 36.0371C7.641 35.3861 7.824 34.6751 7.779 33.8981C7.739 33.2021 7.801 32.5171 7.991 31.8411C8.07 31.5611 8.08 31.2621 8.138 30.9761C8.22 30.5741 8.305 30.1721 8.412 29.7761C8.506 29.4341 8.576 29.0911 8.553 28.7351C8.53 28.3711 8.633 28.0471 8.808 27.7281C8.936 27.4951 9.021 27.2351 9.097 26.9791C9.184 26.6871 9.238 26.3861 9.311 26.0891C9.458 25.4941 9.661 24.9291 10.039 24.4261C10.312 24.0631 10.531 23.6541 10.748 23.2521C11.219 22.3811 11.8 21.5841 12.387 20.7921C13.073 19.8681 13.779 18.9601 14.47 18.0401C14.864 17.5161 15.348 17.0931 15.912 16.7661C16.484 16.4351 16.987 16.0191 17.507 15.6151C18.77 14.6331 20.165 13.8961 21.77 13.6391C22.424 13.5341 23.053 13.3541 23.645 13.0561C24.252 12.7491 24.871 12.4591 25.452 12.1061C27.022 11.1531 28.698 10.4151 30.364 9.65614C31.265 9.24414 32.205 8.95814 33.176 8.76414C33.737 8.65214 34.289 8.63614 34.849 8.78514C35.44 8.94214 36.043 8.94314 36.617 8.72514C37.471 8.40214 38.351 8.25314 39.255 8.15514C39.966 8.07914 40.67 7.95814 41.388 7.93514C41.628 7.92714 41.869 7.83414 42.102 7.75814C42.424 7.65214 42.744 7.61814 43.071 7.71114C43.503 7.83514 43.933 7.73314 44.365 7.71414C44.822 7.69314 45.279 7.67714 45.737 7.66814C45.864 7.66614 45.994 7.69014 46.119 7.71914C46.883 7.89914 47.651 8.06614 48.409 8.27214C49.281 8.50814 50.148 8.76114 51.007 9.04114C51.977 9.35614 52.932 9.71914 53.9 10.0411C54.603 10.2751 55.231 10.6291 55.776 11.1261C56.238 11.5481 56.749 11.8941 57.281 12.2211C57.698 12.4771 58.073 12.8051 58.447 13.1241C58.687 13.3281 58.886 13.5811 59.115 13.8001C59.724 14.3821 60.218 15.0441 60.575 15.8111C60.866 16.4361 61.298 16.9661 61.788 17.4431C62.477 18.1151 63.185 18.7681 63.88 19.4341C64.338 19.8721 64.799 20.3081 65.235 20.7671C65.85 21.4131 66.443 22.0811 67.045 22.7391C67.723 23.4801 68.276 24.3091 68.751 25.1901C68.989 25.6311 69.129 26.0971 69.155 26.6001C69.188 27.2511 69.405 27.8431 69.808 28.3541C70.314 28.9941 70.71 29.6861 71.034 30.4391C71.349 31.1691 71.739 31.8671 72.008 32.6211C72.077 32.8151 72.213 32.9911 72.343 33.1561C72.578 33.4521 72.69 33.7851 72.737 34.1561C72.768 34.3971 72.84 34.6361 72.923 34.8651C73.043 35.1951 73.193 35.5151 73.324 35.8421C73.539 36.3791 73.677 36.9251 73.675 37.5161C73.673 38.0531 73.751 38.5921 73.815 39.1281C73.94 40.1701 73.922 41.2141 73.909 42.2591C73.898 43.1161 73.856 43.9731 73.86 44.8301C73.864 45.7371 73.713 46.6031 73.323 47.4271C73.106 47.8841 72.96 48.3651 72.865 48.8651C72.753 49.4561 72.546 50.0171 72.255 50.5461C72.12 50.7931 71.986 51.0411 71.863 51.2951C71.507 52.0321 71.039 52.6851 70.438 53.2451C69.907 53.7411 69.524 54.3471 69.207 54.9931C68.779 55.8681 68.373 56.7531 67.954 57.6331C67.13 59.3621 66.203 61.0351 65.129 62.6221C64.802 63.1041 64.386 63.5291 63.994 63.9651C63.693 64.3011 63.324 64.5551 62.899 64.7151C62.179 64.9841 61.63 65.4571 61.217 66.0991C60.846 66.6761 60.408 67.1931 59.857 67.6101C59.745 67.6951 59.638 67.7901 59.546 67.8951C59.101 68.3991 58.587 68.8251 58.065 69.2461C57.859 69.4121 57.693 69.6361 57.536 69.8531C57.336 70.1281 57.089 70.3211 56.783 70.4691C56.534 70.5901 56.303 70.7561 56.081 70.9251C55.829 71.1171 55.602 71.3401 55.356 71.5401C54.899 71.9111 54.428 72.2441 53.847 72.4191C53.4 72.5541 52.973 72.7621 52.551 72.9651C51.626 73.4091 50.652 73.7151 49.679 74.0231C48.628 74.3561 47.566 74.6562 46.512 74.9811C46.012 75.1351 45.505 75.2041 44.984 75.1952ZM41.95 74.7561C42.511 74.6962 42.976 74.6272 43.444 74.5992C44.473 74.5361 45.454 74.2772 46.424 73.9421C47.155 73.6891 47.899 73.4712 48.646 73.2701C49.847 72.9462 51.053 72.6441 52.26 72.3431C52.748 72.2211 53.24 72.0881 53.738 72.0361C54.11 71.9981 54.424 71.8851 54.696 71.6521C55.624 70.8591 56.548 70.0611 57.468 69.2591C58.158 68.6581 58.844 68.0531 59.412 67.3291C59.419 67.3201 59.428 67.3121 59.437 67.3051C59.849 66.9711 60.124 66.5401 60.327 66.0561C60.752 65.0511 61.483 64.3591 62.498 63.9701C62.835 63.8411 63.132 63.6531 63.368 63.3871C63.82 62.8791 64.326 62.4001 64.685 61.8301C65.654 60.2921 66.558 58.7131 67.486 57.1501C67.528 57.0791 67.558 57.0021 67.594 56.9281C67.95 56.2011 68.304 55.4721 68.665 54.7471C69.024 54.0251 69.51 53.4011 70.102 52.8491C71.178 51.8441 71.854 50.5691 72.269 49.1951C72.682 47.8281 72.928 46.4111 72.824 44.9571C72.779 44.3271 72.805 43.6891 72.839 43.0561C72.917 41.6031 73.012 40.1511 73.117 38.6991C73.149 38.2561 73.219 37.8141 73.302 37.3771C73.348 37.1391 73.364 36.9121 73.284 36.6851C73.146 36.2991 73.014 35.9091 72.852 35.5321C72.443 34.5841 71.995 33.6531 71.608 32.6961C71.352 32.0621 71.076 31.4451 70.687 30.8821C70.654 30.8341 70.624 30.7811 70.603 30.7271C70.376 30.1441 69.99 29.6851 69.525 29.2711C68.748 28.5811 68.369 27.6901 68.313 26.6601C68.294 26.3121 68.216 25.9811 68.044 25.6851C67.696 25.0871 67.392 24.4471 66.955 23.9201C65.801 22.5301 64.585 21.1911 63.393 19.8331C63.323 19.7541 63.239 19.6881 63.164 19.6141C62.591 19.0581 62.017 18.5031 61.447 17.9441C60.869 17.3801 60.427 16.7241 60.086 15.9911C59.476 14.6771 58.488 13.6541 57.336 12.8411C56.131 11.9901 54.813 11.3081 53.353 10.9401C52.674 10.7691 52.017 10.4991 51.361 10.2471C50.123 9.77114 48.891 9.28014 47.661 8.78614C47.27 8.62914 46.866 8.48014 46.513 8.25714C46.143 8.02314 45.764 7.93414 45.344 7.96814C44.198 8.06214 43.051 8.14614 41.907 8.26414C40.964 8.36114 40.013 8.42214 39.097 8.70014C39.086 8.70314 39.074 8.70514 39.062 8.70614C38.518 8.72714 38.039 8.93314 37.579 9.20814C36.652 9.76014 35.662 9.87314 34.625 9.59914C34.29 9.51114 33.954 9.48414 33.615 9.55614C33.098 9.66514 32.57 9.73914 32.069 9.89814C30.186 10.4951 28.411 11.3571 26.617 12.1731C26.287 12.3231 25.979 12.5221 25.657 12.6911C25.126 12.9681 24.596 13.2461 24.06 13.5121C23.457 13.8121 22.824 14.0221 22.15 14.0931C21.952 14.1141 21.752 14.1351 21.558 14.1791C20.28 14.4641 19.092 14.9931 18.067 15.7851C16.925 16.6661 15.885 17.6711 15.09 18.9061C14.698 19.5161 14.235 20.0831 13.778 20.6491C12.931 21.6991 12.07 22.7401 11.201 23.7731C10.9 24.1311 10.565 24.4621 10.23 24.7881C10.073 24.9401 9.939 25.0951 9.88 25.3041C9.741 25.8011 9.59 26.2951 9.475 26.7981C9.25 27.7811 9.072 28.7761 8.826 29.7531C8.687 30.3041 8.593 30.8531 8.563 31.4171C8.553 31.5921 8.531 31.7691 8.491 31.9391C8.381 32.4071 8.397 32.8711 8.51 33.3351C8.776 34.4331 8.595 35.4541 7.975 36.3981C7.791 36.6781 7.684 36.9871 7.635 37.3151C7.507 38.1881 7.421 39.0651 7.488 39.9471C7.559 40.8841 7.656 41.8181 7.742 42.7531C7.792 43.2901 7.817 43.8321 7.898 44.3641C8.038 45.2801 8.218 46.1901 8.374 47.1041C8.52 47.9531 8.591 48.8061 8.405 49.6591C8.234 50.4381 8.223 51.2171 8.346 52.0031C8.452 52.6741 8.466 53.3671 8.731 54.0031C9.28 55.3261 9.851 56.6351 10.763 57.7691C11.247 58.3711 11.671 59.0241 12.095 59.6711C12.846 60.8211 13.581 61.9811 14.313 63.1431C14.506 63.4501 14.697 63.7671 14.828 64.1021C14.968 64.4621 15.185 64.7331 15.505 64.9271C16.579 65.5771 17.662 66.2121 18.731 66.8711C19.492 67.3401 20.273 67.7611 21.104 68.0901C21.137 68.1031 21.168 68.1211 21.197 68.1401C21.594 68.3931 22.035 68.5031 22.497 68.5391C23.61 68.6291 24.52 69.1021 25.22 69.9721C25.431 70.2331 25.683 70.4401 25.981 70.5871C26.814 70.9971 27.662 71.3721 28.571 71.5851C29.69 71.8471 30.806 72.1281 31.934 72.3481C32.97 72.5501 34.018 72.6851 35.062 72.8441C36.109 73.0041 37.15 73.1751 38.081 73.7321C38.692 74.0982 39.355 74.3242 40.059 74.4371C40.718 74.5442 41.376 74.6591 41.95 74.7561Z" fill="#AC6B34"/>
<path d="M10.217 51.0081C10.217 50.5971 10.244 50.1841 10.209 49.7761C10.175 49.3691 10.103 48.9621 10.007 48.5651C9.704 47.3131 9.765 46.0421 9.833 44.7791C9.881 43.8921 10.071 43.0131 10.194 42.1301C10.221 41.9331 10.255 41.7341 10.253 41.5361C10.239 40.0931 10.346 38.6521 10.3 37.2061C10.26 35.9311 10.357 34.6481 10.465 33.3751C10.515 32.7861 10.727 32.2101 10.877 31.6321C10.946 31.3651 11.099 31.1411 11.304 30.9551C11.931 30.3861 12.316 29.6761 12.561 28.8721C12.92 27.6941 13.304 26.5241 13.672 25.3491C14.042 24.1681 14.666 23.1521 15.601 22.3331C15.636 22.3021 15.669 22.2671 15.707 22.2401C16.373 21.7571 16.722 21.0951 16.849 20.2911C16.976 19.4911 17.476 18.8861 17.974 18.2911C18.707 17.4141 19.618 16.7941 20.717 16.4591C20.806 16.4321 20.893 16.3921 20.984 16.3691C22.191 16.0701 23.282 15.5101 24.364 14.9151C24.75 14.7021 25.186 14.5771 25.604 14.4241C26.923 13.9431 28.3 13.7171 29.68 13.5011C30.015 13.4481 30.347 13.3651 30.674 13.2741C31.329 13.0911 31.984 12.9061 32.631 12.6971C33.378 12.4551 34.109 12.1601 34.861 11.9351C35.951 11.6101 37.045 11.2901 38.154 11.0421C38.754 10.9081 39.389 10.9231 40.009 10.8841C40.296 10.8651 40.566 10.9451 40.818 11.0881C41.521 11.4851 42.278 11.6381 43.084 11.6251C44.34 11.6041 45.596 11.6151 46.852 11.5991C48.128 11.5831 49.316 11.8811 50.408 12.5481C50.489 12.5961 50.574 12.6371 50.651 12.6911C51.17 13.0501 51.752 13.1831 52.361 13.0781C53.263 12.9221 54.082 13.1731 54.893 13.5031C55.929 13.9241 56.79 14.5721 57.445 15.4851C57.835 16.0281 58.231 16.5681 58.631 17.1051C58.728 17.2351 58.84 17.3581 58.961 17.4671C59.764 18.1911 60.515 18.9531 61.149 19.8421C61.895 20.8911 62.476 22.0251 63.076 23.1531C63.247 23.4731 63.437 23.7841 63.637 24.0871C63.993 24.6261 64.357 25.1591 64.729 25.6861C65.006 26.0791 65.293 26.4661 65.587 26.8461C66.552 28.0911 67.469 29.3681 68.196 30.7681C68.422 31.2031 68.573 31.6781 68.748 32.1381C68.849 32.4061 68.877 32.6821 68.816 32.9691C68.638 33.8081 68.75 34.6211 69.028 35.4261C69.431 36.5901 69.812 37.7611 70.203 38.9291C70.607 40.1381 70.679 41.3621 70.384 42.6071C70.282 43.0391 70.145 43.4741 70.269 43.9261C70.334 44.1621 70.386 44.4101 70.499 44.6251C70.893 45.3751 70.93 46.1751 70.881 46.9921C70.807 48.2321 70.418 49.3581 69.651 50.3441C69.615 50.3911 69.587 50.4431 69.549 50.4881C68.754 51.4291 68.213 52.5181 67.686 53.6211C67.486 54.0411 67.195 54.4181 66.933 54.8071C66.168 55.9431 65.205 56.9061 64.247 57.8741C63.992 58.1311 63.754 58.4081 63.527 58.6921C63.103 59.2241 62.687 59.7631 62.279 60.3081C61.998 60.6831 61.725 61.0661 61.467 61.4571C60.681 62.6441 59.81 63.7671 58.859 64.8221C58.43 65.2971 57.895 65.6771 57.401 66.0931C57.161 66.2951 56.866 66.3811 56.558 66.4171C55.803 66.5051 55.139 66.8041 54.533 67.2541C53.496 68.0241 52.454 68.7861 51.417 69.5551C50.382 70.3221 49.23 70.7921 47.941 70.8611C47.148 70.9031 46.483 71.1681 45.93 71.7341C45.638 72.0331 45.283 72.2341 44.895 72.3871C44.169 72.6741 43.416 72.8421 42.639 72.9041C41.9 72.9641 41.191 72.8091 40.492 72.5931C40.312 72.5381 40.129 72.4911 39.956 72.4201C38.912 71.9931 37.807 71.8631 36.703 71.7091C36.231 71.6431 35.769 71.4881 35.308 71.3561C33.991 70.9811 32.779 70.3611 31.563 69.7511C31.239 69.5881 30.903 69.4471 30.563 69.3191C29.926 69.0791 29.285 68.8521 28.642 68.6301C28.232 68.4881 27.82 68.3511 27.401 68.2391C26.003 67.8671 24.646 67.3721 23.327 66.7881C22.72 66.5201 22.173 66.1161 21.606 65.7631C21.373 65.6171 21.209 65.3991 21.095 65.1471C20.751 64.3881 20.209 63.8051 19.529 63.3301C18.5 62.6111 17.484 61.8731 16.463 61.1411C15.467 60.4281 14.675 59.5361 14.231 58.3901C13.904 57.5451 13.393 56.9131 12.572 56.5231C12.386 56.4351 12.212 56.2941 12.069 56.1431C11.229 55.2591 10.597 54.2431 10.356 53.0401C10.223 52.3781 10.228 51.6891 10.171 51.0121C10.186 51.0111 10.202 51.0091 10.217 51.0081ZM10.301 46.6771C10.328 47.0271 10.356 47.3781 10.381 47.7281C10.479 49.0861 10.574 50.4441 10.675 51.8011C10.767 53.0421 11.193 54.1531 11.968 55.1301C12.258 55.4951 12.578 55.8171 13.031 55.9671C13.99 56.2841 14.626 56.9251 14.969 57.8681C15.013 57.9891 15.076 58.1031 15.13 58.2201C15.375 58.7471 15.684 59.2331 16.101 59.6371C16.521 60.0451 16.952 60.4471 17.41 60.8111C18.283 61.5041 19.176 62.1731 20.067 62.8441C20.774 63.3761 21.343 64.0171 21.724 64.8221C21.787 64.9541 21.886 65.0891 22.004 65.1731C22.675 65.6501 23.369 66.0901 24.153 66.3631C24.762 66.5761 25.368 66.7991 25.984 66.9931C26.699 67.2201 27.427 67.4051 28.141 67.6351C29.146 67.9581 30.145 68.3021 31.144 68.6441C31.354 68.7161 31.561 68.8061 31.757 68.9101C32.388 69.2471 33.017 69.5891 33.642 69.9391C34.421 70.3741 35.197 70.8151 36.07 71.0441C36.637 71.1921 37.204 71.3411 37.774 71.4781C38.846 71.7371 39.917 71.9981 40.994 72.2361C41.733 72.4001 42.482 72.4321 43.232 72.2771C44.191 72.0791 45.074 71.7781 45.697 70.9291C46.117 70.3561 46.754 70.0941 47.464 70.0191C47.895 69.9731 48.329 69.9231 48.752 69.8321C49.746 69.6191 50.602 69.1041 51.429 68.5371C52.387 67.8791 53.342 67.2171 54.299 66.5581C54.958 66.1051 55.682 65.8201 56.478 65.7121C56.646 65.6901 56.828 65.6301 56.963 65.5301C57.625 65.0421 58.254 64.5121 58.756 63.8501C59.139 63.3451 59.53 62.8461 59.901 62.3311C60.278 61.8081 60.624 61.2631 61.001 60.7391C61.446 60.1201 61.939 59.5331 62.357 58.8971C63.069 57.8141 63.978 56.9191 64.936 56.0691C65.837 55.2701 66.653 54.4131 67.265 53.3591C67.966 52.1521 68.737 50.9861 69.461 49.7921C69.949 48.9881 70.239 48.1191 70.298 47.1691C70.349 46.3261 70.265 45.5451 69.758 44.8241C69.357 44.2541 69.27 43.5911 69.41 42.9001C69.501 42.4521 69.596 42.0021 69.641 41.5481C69.739 40.5501 69.529 39.5861 69.247 38.6351C68.926 37.5561 68.608 36.4751 68.28 35.3981C68.025 34.5631 67.951 33.7211 68.118 32.8591C68.145 32.7161 68.136 32.5491 68.09 32.4121C67.826 31.6321 67.521 30.8701 67.046 30.1881C66.691 29.6781 66.345 29.1601 65.977 28.6581C65.581 28.1191 65.155 27.6021 64.759 27.0641C64.315 26.4591 63.916 25.8181 63.448 25.2321C62.639 24.2211 62.065 23.0821 61.555 21.9071C61.071 20.7921 60.499 19.7431 59.678 18.8271C58.754 17.7961 57.888 16.7131 56.987 15.6611C56.284 14.8411 55.417 14.2641 54.388 13.9161C53.747 13.6991 53.122 13.6171 52.459 13.8191C51.713 14.0471 50.996 13.9281 50.324 13.5321C50.091 13.3951 49.853 13.2681 49.617 13.1371C49.172 12.8901 48.7 12.7021 48.2 12.6241C47.586 12.5281 46.967 12.4441 46.348 12.4161C45.222 12.3641 44.095 12.3481 42.968 12.3331C42.094 12.3211 41.271 12.1361 40.498 11.7211C40.359 11.6461 40.186 11.5891 40.032 11.5961C39.446 11.6261 38.852 11.6311 38.281 11.7471C37.537 11.8991 36.806 12.1321 36.08 12.3601C35.364 12.5851 34.663 12.8561 33.95 13.0911C33.216 13.3341 32.462 13.5251 31.739 13.7971C30.549 14.2441 29.312 14.4401 28.06 14.5551C26.788 14.6721 25.563 14.9201 24.386 15.4431C23.164 15.9851 21.91 16.4551 20.676 16.9711C19.785 17.3431 19.025 17.8951 18.405 18.6481C17.875 19.2921 17.511 19.9791 17.498 20.8421C17.488 21.4731 17.219 22.0251 16.763 22.4721C16.537 22.6941 16.302 22.9071 16.07 23.1231C15.653 23.5091 15.285 23.9381 15.034 24.4481C14.765 24.9951 14.5 25.5471 14.286 26.1161C13.899 27.1491 13.547 28.1941 13.189 29.2371C12.898 30.0851 12.464 30.8371 11.805 31.4561C11.699 31.5561 11.598 31.6941 11.561 31.8321C11.41 32.3981 11.224 32.9651 11.166 33.5431C11.078 34.4281 11.082 35.3241 11.055 36.2151C11.043 36.6021 11.02 36.9931 11.056 37.3771C11.191 38.8081 11.047 40.2401 11.082 41.6721C11.085 41.7651 11.074 41.8601 11.058 41.9521C10.918 42.7491 10.777 43.5471 10.631 44.3431C10.49 45.1151 10.298 45.8811 10.301 46.6771Z" fill="#AC6B34"/>
<path d="M68.455 45.8211C68.427 45.9761 68.402 46.1981 68.345 46.4121C68.229 46.8451 68.219 47.2681 68.388 47.6901C68.422 47.7761 68.445 47.8721 68.447 47.9631C68.461 48.7201 68.327 49.4371 67.858 50.0571C67.376 50.6941 66.952 51.3651 66.584 52.0771C66.311 52.6071 65.98 53.1101 65.643 53.6031C65.368 54.0061 64.998 54.3211 64.524 54.4791C63.052 54.9711 61.718 55.7361 60.429 56.5761C59.279 57.3261 58.161 58.1251 57.033 58.9091C56.481 59.2921 56.07 59.8051 55.779 60.4051C55.432 61.1171 55.012 61.7761 54.506 62.3841C54.348 62.5731 54.207 62.7771 54.077 62.9861C53.441 63.9951 52.611 64.7671 51.503 65.2521C50.992 65.4761 50.528 65.8101 50.052 66.1101C49.636 66.3731 49.244 66.6751 48.822 66.9281C48.171 67.3201 47.589 67.7871 47.116 68.3821C46.839 68.7301 46.503 68.9891 46.1 69.1761C45.674 69.3731 45.256 69.5881 44.837 69.7991C44.487 69.9761 44.124 70.0921 43.727 70.1051C43.283 70.1191 42.873 70.2421 42.524 70.5381C42.446 70.6051 42.349 70.6621 42.251 70.6931C41.617 70.8981 40.962 71.0431 40.316 70.8191C39.235 70.4431 38.119 70.2391 37.001 70.0301C36.794 69.9911 36.591 69.9301 36.387 69.8751C35.673 69.6821 35.091 69.3091 34.648 68.6961C33.906 67.6701 32.963 66.8311 31.991 66.0351C30.856 65.1061 29.68 64.2281 28.521 63.3281C27.864 62.8171 27.114 62.5361 26.294 62.4331C25.685 62.3571 25.101 62.1881 24.526 61.9781C24.14 61.8381 23.747 61.7201 23.353 61.6041C22.318 61.3011 21.399 60.8141 20.684 59.9841C20.283 59.5191 19.813 59.1311 19.317 58.7711C18.927 58.4891 18.545 58.1961 18.182 57.8801C17.609 57.3821 16.988 56.9701 16.274 56.7051C15.859 56.5511 15.506 56.3121 15.204 55.9861C14.869 55.6251 14.519 55.2761 14.172 54.9261C13.921 54.6721 13.721 54.3871 13.599 54.0491C13.439 53.6061 13.185 53.2371 12.775 52.9841C12.688 52.9291 12.607 52.8511 12.548 52.7671C12.142 52.1921 11.825 51.5781 11.841 50.8521C11.863 49.8871 11.766 48.9341 11.62 47.9811C11.529 47.3901 11.482 46.7921 11.573 46.1921C11.621 45.8741 11.705 45.5671 11.89 45.3041C13.159 43.4961 13.924 41.4501 14.669 39.3961C14.917 38.7131 15.137 38.0191 15.37 37.3291C15.608 36.6241 15.649 35.9031 15.51 35.1751C15.387 34.5361 15.359 33.8941 15.381 33.2471C15.395 32.8481 15.391 32.4481 15.376 32.0501C15.333 30.9341 15.525 29.8791 16.119 28.9121C16.427 28.4101 16.635 27.8611 16.815 27.3001C16.962 26.8431 17.122 26.3881 17.312 25.9471C17.628 25.2161 17.819 24.4611 17.852 23.6651C17.867 23.3071 17.961 22.9721 18.129 22.6561C18.393 22.1581 18.653 21.6581 18.914 21.1591C19.069 20.8641 19.271 20.6081 19.535 20.4021C19.906 20.1131 20.185 19.7621 20.299 19.2941C20.321 19.2051 20.36 19.1131 20.413 19.0381C20.831 18.4551 21.326 17.9591 22.03 17.7381C22.905 17.4641 23.751 17.1271 24.567 16.7041C25.15 16.4011 25.759 16.1531 26.415 16.0381C26.758 15.9771 27.094 15.9901 27.424 16.0921C29.077 16.6061 30.784 16.7551 32.498 16.8281C33.694 16.8801 34.892 16.8811 36.089 16.9061C36.738 16.9191 37.351 16.7581 37.917 16.4591C38.659 16.0671 39.43 15.7641 40.242 15.5581C40.434 15.5101 40.625 15.4441 40.808 15.3671C41.442 15.0991 42.101 14.9571 42.786 14.8991C43.25 14.8601 43.7 14.9131 44.149 15.0111C44.795 15.1521 45.447 15.1981 46.107 15.1931C46.564 15.1891 47.022 15.2131 47.478 15.2511C48.163 15.3071 48.844 15.2991 49.505 15.1091C50.076 14.9451 50.637 14.9521 51.21 15.0721C51.588 15.1521 51.971 15.2131 52.354 15.2701C52.72 15.3251 53.063 15.4321 53.37 15.6401C53.771 15.9111 54.202 16.0671 54.694 16.0331C54.797 16.0261 54.909 16.0401 55.007 16.0741C55.67 16.3061 56.284 16.6201 56.7 17.2161C57.199 17.9291 57.756 18.5891 58.369 19.2091C58.772 19.6161 59.126 20.0741 59.471 20.5331C59.742 20.8941 59.91 21.3151 59.913 21.7761C59.923 23.2921 60.22 24.7641 60.611 26.2171C60.98 27.5871 61.406 28.9421 61.815 30.3011C62.012 30.9561 62.387 31.5091 62.875 31.9811C63.411 32.4971 63.883 33.0611 64.281 33.6901C64.431 33.9271 64.599 34.1571 64.781 34.3711C65.149 34.8041 65.442 35.2801 65.683 35.7931C65.919 36.2991 66.065 36.8261 66.112 37.3821C66.162 37.9821 66.307 38.5601 66.487 39.1341C66.641 39.6251 66.786 40.1211 66.909 40.6221C67.077 41.3121 67.309 41.9741 67.705 42.5661C67.992 42.9961 68.157 43.4611 68.216 43.9741C68.271 44.4511 68.354 44.9261 68.421 45.4021C68.437 45.5181 68.44 45.6361 68.455 45.8211ZM11.969 47.3581C11.987 48.6551 12.194 49.9281 12.481 51.1881C12.59 51.6661 12.815 52.1071 13.219 52.3961C13.726 52.7581 14.07 53.2221 14.303 53.7911C14.385 53.9921 14.517 54.1841 14.663 54.3451C15.019 54.7361 15.4 55.1031 15.763 55.4871C15.977 55.7131 16.226 55.8791 16.518 55.9881C17.332 56.2921 18.038 56.7671 18.688 57.3371C19.023 57.6311 19.376 57.9051 19.737 58.1651C20.244 58.5311 20.739 58.9121 21.139 59.3921C21.785 60.1681 22.624 60.5911 23.582 60.8291C24.06 60.9471 24.531 61.0931 25.01 61.2111C25.522 61.3371 26.035 61.4681 26.554 61.5531C27.332 61.6821 28.052 61.9421 28.697 62.3961C29.138 62.7081 29.575 63.0251 30.003 63.3541C31.875 64.7911 33.58 66.4001 34.958 68.3251C35.37 68.8991 35.884 69.2581 36.547 69.4731C37.917 69.9181 39.324 70.1621 40.752 70.2861C41.232 70.3281 41.719 70.2301 42.121 69.9251C42.566 69.5871 43.061 69.4021 43.615 69.3731C43.913 69.3571 44.193 69.2871 44.459 69.1511C44.909 68.9231 45.361 68.6981 45.816 68.4801C46.086 68.3501 46.313 68.1751 46.5 67.9401C47.056 67.2411 47.743 66.7011 48.511 66.2511C48.874 66.0381 49.222 65.7961 49.563 65.5471C50.076 65.1711 50.601 64.8121 51.192 64.5761C52.13 64.2001 52.788 63.5271 53.308 62.6891C53.543 62.3101 53.8 61.9451 54.034 61.5651C54.335 61.0771 54.643 60.5901 54.913 60.0831C55.283 59.3881 55.741 58.7671 56.387 58.3141C57.366 57.6271 58.343 56.9301 59.364 56.3091C60.881 55.3841 62.487 54.6331 64.189 54.1081C64.632 53.9711 64.991 53.7251 65.273 53.3621C65.352 53.2601 65.435 53.1611 65.512 53.0571C66.378 51.8911 67.044 50.6121 67.604 49.2791C67.788 48.8411 67.838 48.3591 67.683 47.8991C67.496 47.3451 67.492 46.8001 67.618 46.2361C67.67 46.0001 67.69 45.7461 67.667 45.5061C67.619 45.0051 67.525 44.5071 67.462 44.0071C67.419 43.6621 67.311 43.3491 67.119 43.0571C66.647 42.3431 66.36 41.5541 66.174 40.7211C66.077 40.2871 65.95 39.8581 65.812 39.4351C65.618 38.8421 65.452 38.2441 65.398 37.6211C65.348 37.0401 65.226 36.4801 64.923 35.9781C64.723 35.6481 64.498 35.3321 64.265 35.0241C63.996 34.6681 63.713 34.3231 63.424 33.9841C63.044 33.5371 62.668 33.0861 62.262 32.6631C61.725 32.1041 61.294 31.4821 61.051 30.7451C60.808 30.0101 60.57 29.2721 60.366 28.5261C59.834 26.5831 59.494 24.6101 59.467 22.5901C59.464 22.3201 59.45 22.0501 59.445 21.7801C59.438 21.4661 59.343 21.1791 59.183 20.9131C59.068 20.7221 58.946 20.5361 58.816 20.3551C57.992 19.2021 57.002 18.2011 55.935 17.2771C55.578 16.9671 55.139 16.7561 54.653 16.7631C54.042 16.7721 53.502 16.6001 52.988 16.2841C52.803 16.1701 52.586 16.0881 52.373 16.0431C51.857 15.9351 51.332 15.8651 50.814 15.7631C50.47 15.6951 50.142 15.7301 49.807 15.8161C49.12 15.9931 48.423 16.0541 47.712 16.0071C46.999 15.9601 46.282 15.9621 45.568 15.9171C45.066 15.8851 44.556 15.8541 44.068 15.7421C43.247 15.5541 42.459 15.6271 41.68 15.9051C41.183 16.0821 40.691 16.2731 40.202 16.4731C39.606 16.7161 39.008 16.9601 38.424 17.2321C37.767 17.5381 37.09 17.7561 36.361 17.7631C35.622 17.7701 34.882 17.7681 34.143 17.7421C31.951 17.6651 29.794 17.3461 27.708 16.6551C27.036 16.4331 26.41 16.4481 25.748 16.6621C24.378 17.1071 23.097 17.7401 21.868 18.4791C21.464 18.7231 21.129 19.0791 20.988 19.5451C20.814 20.1191 20.486 20.5671 20.042 20.9551C19.86 21.1141 19.7 21.3121 19.579 21.5211C19.31 21.9881 19.074 22.4751 18.82 22.9511C18.697 23.1831 18.623 23.4241 18.611 23.6891C18.568 24.6521 18.308 25.5601 17.91 26.4341C17.774 26.7321 17.666 27.0451 17.571 27.3581C17.372 28.0121 17.146 28.6571 16.782 29.2361C16.251 30.0811 16.116 31.0001 16.175 31.9711C16.207 32.4981 16.221 33.0261 16.255 33.5521C16.28 33.9381 16.289 34.3301 16.363 34.7081C16.582 35.8231 16.475 36.9031 16.08 37.9621C16.007 38.1601 15.943 38.3611 15.874 38.5611C15.065 40.9031 14.03 43.1341 12.556 45.1361C12.152 45.6851 11.951 46.2651 11.968 46.9351C11.972 47.0761 11.969 47.2171 11.969 47.3581Z" fill="#AC6B34"/>
<path d="M12.32 41.8812C12.275 41.1122 12.354 40.3612 12.618 39.6302C12.759 39.2382 12.783 38.8332 12.622 38.4242C12.565 38.2792 12.578 38.1012 12.581 37.9392C12.596 37.2702 12.64 36.6022 12.633 35.9332C12.625 35.1232 12.807 34.3682 13.244 33.6902C13.636 33.0842 13.88 32.4552 13.872 31.7152C13.863 30.9222 14.125 30.1662 14.328 29.4082C14.599 28.4002 14.878 27.3942 15.185 26.3962C15.29 26.0532 15.48 25.7342 15.649 25.4122C15.741 25.2382 15.876 25.0902 16.161 24.9792C15.544 25.7692 15.439 26.6632 15.204 27.5112C15.157 27.6812 15.123 27.8542 15.082 28.0252C14.964 28.5162 14.857 29.0092 14.726 29.4962C14.491 30.3652 14.353 31.2462 14.472 32.1432C14.602 33.1282 14.298 33.9392 13.612 34.6412C13.446 34.8102 13.325 35.0462 13.245 35.2722C12.935 36.1492 12.872 37.0602 12.934 37.9822C12.943 38.1082 12.971 38.2462 13.035 38.3512C13.241 38.6872 13.259 39.0522 13.164 39.4062C13.015 39.9592 12.822 40.5012 12.638 41.0442C12.541 41.3312 12.423 41.6112 12.32 41.8812Z" fill="#AC6B34"/>
<path d="M14.015 46.7273C14.002 45.8483 14.107 44.9913 14.376 44.1543C14.441 43.9543 14.477 43.7433 14.514 43.5363C14.631 42.8883 14.911 42.3143 15.266 41.7663C15.527 41.3633 15.762 40.9423 16.001 40.5253C16.258 40.0783 16.484 39.6113 16.765 39.1793C17.248 38.4353 17.501 37.6123 17.477 36.7473C17.446 35.6223 17.752 34.5763 18.145 33.5663C18.406 32.8993 18.54 32.2363 18.66 31.5403C18.845 30.4683 18.887 29.3953 18.92 28.3163C18.943 27.5833 19.085 26.8663 19.347 26.1853C19.621 25.4743 19.953 24.7873 20.256 24.0883C20.488 23.5533 20.694 23.0053 20.954 22.4843C21.075 22.2413 21.288 22.0393 21.475 21.8343C21.743 21.5403 22.032 21.2653 22.302 20.9733C22.819 20.4163 23.425 19.9843 24.108 19.6563C24.352 19.5403 24.606 19.4433 24.84 19.3103C25.778 18.7733 26.808 18.4943 27.839 18.2163C27.985 18.1773 28.138 18.1543 28.29 18.1413C28.991 18.0843 29.692 18.0103 30.395 17.9883C30.742 17.9773 31.096 18.0473 31.44 18.1153C32.291 18.2833 33.138 18.4713 33.986 18.6533C34.204 18.6993 34.424 18.7393 34.638 18.8013C35.502 19.0493 36.373 19.0263 37.204 18.7333C38.276 18.3543 39.374 18.3883 40.475 18.3733C40.591 18.3723 40.707 18.4213 40.823 18.4203C41.16 18.4183 41.501 18.4283 41.835 18.3863C42.3 18.3283 42.761 18.2373 43.22 18.1433C43.644 18.0563 44.064 17.9493 44.485 17.8453C45.191 17.6713 45.887 17.4443 46.602 17.3283C47.784 17.1353 48.966 17.2763 50.14 17.4743C50.288 17.4993 50.441 17.4953 50.591 17.5113C50.906 17.5443 51.219 17.6053 51.535 17.6123C52.047 17.6243 52.469 17.8463 52.893 18.0983C53.133 18.2413 53.404 18.3323 53.662 18.4443C54.372 18.7523 54.972 19.2143 55.503 19.7703C55.69 19.9653 55.858 20.1803 56.059 20.3583C56.834 21.0443 57.381 21.9103 57.955 22.7533C58.073 22.9263 58.169 23.1183 58.252 23.3113C58.505 23.9053 58.763 24.4973 58.984 25.1033C59.1 25.4193 59.17 25.7583 59.21 26.0933C59.33 27.0713 59.424 28.0523 59.528 29.0323C59.54 29.1493 59.56 29.2663 59.561 29.3823C59.57 30.4233 59.957 31.3283 60.565 32.1473C60.87 32.5573 61.108 32.9953 61.272 33.4783C61.393 33.8333 61.538 34.1803 61.655 34.5373C61.731 34.7703 61.789 35.0113 61.831 35.2523C61.896 35.6273 62.019 35.9733 62.215 36.3023C62.437 36.6743 62.626 37.0663 62.834 37.4463C62.986 37.7233 63.136 38.0033 63.305 38.2703C63.493 38.5683 63.691 38.8603 63.901 39.1423C64.86 40.4303 65.299 41.9153 65.564 43.4713C65.669 44.0923 65.761 44.7223 65.942 45.3233C66.052 45.6873 65.973 46.0133 65.944 46.3533C65.911 46.7603 65.826 47.1633 65.778 47.5703C65.695 48.2903 65.455 48.9583 65.128 49.5993C64.942 49.9643 64.756 50.3313 64.551 50.6863C63.897 51.8173 63.185 52.9053 62.146 53.7343C61.889 53.9383 61.639 54.1533 61.397 54.3753C60.959 54.7793 60.451 55.0603 59.902 55.2843C59.36 55.5063 58.827 55.7513 58.29 55.9873C57.84 56.1863 57.395 56.3983 56.939 56.5863C56.168 56.9043 55.521 57.4023 55.061 58.0783C54.427 59.0083 53.526 59.6183 52.663 60.2823C52.58 60.3453 52.482 60.3913 52.386 60.4353C51.993 60.6123 51.674 60.8773 51.396 61.2063C51.147 61.5013 50.862 61.7673 50.597 62.0483C50.364 62.2953 50.127 62.5403 49.906 62.7983C49.716 63.0213 49.537 63.2553 49.37 63.4963C48.353 64.9593 46.936 65.9143 45.373 66.6973C44.853 66.9573 44.375 67.2993 43.863 67.5763C43.663 67.6843 43.425 67.7313 43.198 67.7763C42.658 67.8843 42.118 67.9953 41.573 68.0653C40.932 68.1473 40.289 68.1563 39.649 68.0213C39.294 67.9463 38.932 67.9033 38.576 67.8293C37.25 67.5553 35.95 67.2123 34.805 66.4423C34.552 66.2723 34.289 66.1163 34.022 65.9683C33.469 65.6603 33.023 65.2363 32.624 64.7503C32.305 64.3603 31.961 63.9903 31.624 63.6143C31.248 63.1953 30.859 62.7873 30.49 62.3623C29.959 61.7513 29.304 61.3023 28.543 61.0813C27.463 60.7673 26.603 60.1013 25.702 59.4903C25.21 58.9033 24.524 58.6323 23.86 58.3033C23.132 57.9423 22.411 57.5783 21.634 57.3443C20.025 56.8603 18.726 55.9003 17.548 54.7413C17.099 54.2983 16.648 53.8503 16.153 53.4613C15.859 53.2313 15.723 52.9253 15.551 52.6313C15.369 52.3183 15.224 51.9823 15.041 51.6703C14.641 50.9933 14.417 50.2613 14.311 49.4873C14.258 49.1033 14.183 48.7233 14.143 48.3383C14.088 47.8023 14.056 47.2643 14.015 46.7273ZM14.746 46.8103C14.77 47.2553 14.784 47.7003 14.82 48.1433C14.859 48.6343 14.922 49.1233 14.967 49.6133C14.999 49.9643 15.017 50.3273 15.226 50.6193C15.549 51.0693 15.698 51.5843 15.872 52.0953C15.932 52.2693 16.015 52.4453 16.129 52.5883C16.561 53.1293 16.991 53.6733 17.455 54.1863C18.771 55.6403 20.351 56.6303 22.326 56.9293C22.705 56.9863 23.079 57.1103 23.439 57.2463C23.943 57.4373 24.431 57.6703 24.927 57.8823C25.422 58.0943 25.843 58.3963 26.176 58.8273C26.332 59.0293 26.522 59.2123 26.72 59.3743C27.333 59.8783 27.997 60.2733 28.78 60.4803C29.77 60.7433 30.592 61.2883 31.238 62.0983C31.523 62.4563 31.857 62.7723 32.165 63.1113C32.512 63.4933 32.868 63.8693 33.197 64.2663C33.575 64.7243 33.995 65.1233 34.525 65.4023C34.743 65.5163 34.956 65.6453 35.155 65.7903C36.118 66.4913 37.256 66.7633 38.369 67.0863C38.93 67.2483 39.513 67.3363 40.087 67.4553C40.373 67.5143 40.664 67.5903 40.952 67.5003C41.536 67.3173 42.133 67.3403 42.732 67.3403C42.869 67.3403 43.013 67.3043 43.141 67.2543C43.829 66.9853 44.526 66.7343 45.196 66.4253C46.438 65.8543 47.552 65.0963 48.377 63.9853C48.698 63.5533 48.948 63.0703 49.239 62.6163C49.428 62.3203 49.614 62.0183 49.835 61.7463C50.183 61.3193 50.559 60.9143 50.923 60.5003C51.279 60.0963 51.701 59.7953 52.212 59.6093C52.452 59.5213 52.682 59.3963 52.899 59.2593C53.572 58.8363 54.144 58.3143 54.585 57.6383C55.137 56.7903 55.898 56.1823 56.857 55.8213C57.284 55.6603 57.689 55.4413 58.106 55.2533C58.587 55.0363 59.064 54.8083 59.554 54.6143C60.095 54.3993 60.593 54.1273 61.016 53.7223C61.228 53.5193 61.456 53.3313 61.689 53.1543C62.615 52.4483 63.213 51.4713 63.847 50.5293C64.148 50.0833 64.387 49.5953 64.656 49.1283C64.813 48.8543 65.005 48.5873 65.013 48.2603C65.03 47.6403 65.217 47.0633 65.413 46.4843C65.457 46.3553 65.468 46.2053 65.458 46.0683C65.402 45.2493 65.37 44.4253 65.264 43.6123C65.101 42.3653 64.726 41.1783 63.994 40.1393C63.657 39.6623 63.239 39.2423 62.87 38.7863C62.642 38.5053 62.42 38.2153 62.223 37.9113C61.962 37.5073 61.732 37.0843 61.481 36.6743C61.181 36.1833 60.999 35.6593 60.988 35.0793C60.985 34.9273 60.974 34.7723 60.939 34.6253C60.741 33.7853 60.477 32.9743 59.894 32.3053C59.795 32.1913 59.71 32.0623 59.627 31.9343C59.176 31.2453 58.881 30.5013 58.839 29.6683C58.822 29.3403 58.776 29.0133 58.741 28.6873C58.661 27.9403 58.571 27.1953 58.501 26.4483C58.453 25.9413 58.363 25.4513 58.146 24.9853C58.012 24.6993 57.889 24.4063 57.785 24.1073C57.402 23.0073 56.66 22.1353 55.96 21.2403C55.614 20.7983 55.209 20.4023 54.833 19.9833C54.613 19.7383 54.396 19.4783 54.075 19.3753C53.571 19.2133 53.163 18.9033 52.744 18.6003C52.594 18.4923 52.428 18.3873 52.254 18.3363C51.645 18.1593 51.034 17.9903 50.417 17.8503C49.485 17.6383 48.54 17.5513 47.584 17.6083C46.522 17.6723 45.539 18.0083 44.594 18.4743C44.181 18.6793 43.749 18.8193 43.296 18.9053C42.893 18.9823 42.492 19.0763 42.095 19.1773C41.513 19.3243 40.938 19.3513 40.359 19.1633C40.205 19.1123 40.039 19.0903 39.876 19.0743C39.001 18.9893 38.149 19.0543 37.314 19.3733C36.369 19.7353 35.394 19.7823 34.409 19.5083C34.127 19.4303 33.837 19.3783 33.55 19.3183C32.781 19.1573 32.01 19.0083 31.243 18.8363C30.814 18.7403 30.386 18.7053 29.95 18.7463C29.611 18.7783 29.272 18.8153 28.932 18.8243C27.793 18.8513 26.755 19.2763 25.708 19.6503C25.147 19.8523 24.613 20.1293 24.069 20.3773C23.803 20.4983 23.517 20.6043 23.34 20.8483C22.986 21.3343 22.505 21.6673 22.026 22.0053C21.941 22.0653 21.861 22.1413 21.801 22.2253C21.079 23.2423 20.416 24.2923 19.956 25.4593C19.491 26.6383 19.296 27.8523 19.455 29.1173C19.529 29.7113 19.607 30.3053 19.536 30.9073C19.48 31.3733 19.444 31.8413 19.403 32.3093C19.357 32.8443 19.209 33.3403 18.911 33.7963C18.752 34.0403 18.62 34.3063 18.512 34.5773C18.234 35.2813 18.052 36.0063 18.126 36.7753C18.139 36.9033 18.132 37.0343 18.126 37.1633C18.096 37.8753 17.953 38.5643 17.61 39.1933C17.145 40.0493 16.696 40.9173 16.167 41.7333C15.641 42.5443 15.291 43.3963 15.075 44.3403C14.888 45.1593 14.733 45.9683 14.746 46.8103Z" fill="#AC6B34"/>
<path d="M16.787 47.2992C16.787 46.9592 16.784 46.6192 16.789 46.2792C16.792 46.1392 16.798 45.9952 16.833 45.8612C16.858 45.7642 16.813 45.6312 16.985 45.5772C17.04 45.5602 17.037 45.3412 17.051 45.2132C17.127 44.5242 17.352 43.8782 17.698 43.2892C18.365 42.1512 18.903 40.9612 19.353 39.7202C19.603 39.0292 19.798 38.3412 19.889 37.6152C19.941 37.1972 20.014 36.7792 20.11 36.3682C20.218 35.9072 20.257 35.4441 20.271 34.9732C20.284 34.5282 20.325 34.0831 20.376 33.6412C20.398 33.4581 20.457 33.2711 20.535 33.1032C20.855 32.4162 20.998 31.6762 21.188 30.9511C21.22 30.8272 21.235 30.6952 21.229 30.5681C21.199 29.9522 21.288 29.3531 21.428 28.7551C21.527 28.3331 21.591 27.9011 21.639 27.4701C21.697 26.9501 21.83 26.4551 22.071 25.9921C22.396 25.3681 22.697 24.7261 23.076 24.1351C23.749 23.0841 24.651 22.2791 25.834 21.8221C26.425 21.5941 27.012 21.3551 27.607 21.1371C27.977 21.0001 28.35 20.8351 28.762 20.9801C28.803 20.9941 28.856 20.9811 28.901 20.9701C29.831 20.7531 30.749 20.8791 31.658 21.0811C32.497 21.2671 33.338 21.4101 34.202 21.4001C34.576 21.3951 34.952 21.4361 35.326 21.4631C35.774 21.4961 36.215 21.4581 36.657 21.3821C37.281 21.2751 37.912 21.2071 38.537 21.1061C38.907 21.0461 39.274 20.9661 39.637 20.8781C39.979 20.7951 40.313 20.6801 40.655 20.5971C41.022 20.5091 41.393 20.4941 41.773 20.5271C42.169 20.5621 42.571 20.5481 42.969 20.5361C43.592 20.5161 44.205 20.4531 44.797 20.2231C45.065 20.1191 45.37 20.1081 45.66 20.0661C46.159 19.9931 46.668 19.9651 47.157 19.8521C47.921 19.6751 48.672 19.7311 49.428 19.8691C49.843 19.9451 50.26 20.0181 50.672 20.1081C51.986 20.3961 53.1 21.0271 53.967 22.0661C54.388 22.5711 54.803 23.0811 55.21 23.5971C55.348 23.7711 55.51 23.9531 55.566 24.1581C55.792 24.9841 56.291 25.7191 56.378 26.5901C56.41 26.9171 56.474 27.2421 56.494 27.5691C56.55 28.4921 56.838 29.3622 57.053 30.2512C57.287 31.2201 57.631 32.1312 58.141 32.9841C58.171 33.0342 58.197 33.0871 58.219 33.1421C58.57 34.0051 59.022 34.8091 59.573 35.5622C59.867 35.9632 60.016 36.4302 60.151 36.9112C60.407 37.8242 60.686 38.7312 61.278 39.5082C61.496 39.7932 61.639 40.1372 61.804 40.4602C62.048 40.9412 62.26 41.4402 62.526 41.9072C62.922 42.6002 63.044 43.3602 63.15 44.1292C63.184 44.3732 63.196 44.6212 63.243 44.8632C63.435 45.8492 63.279 46.8092 62.992 47.7462C62.866 48.1552 62.645 48.5412 62.425 48.9132C62.096 49.4682 61.737 50.0052 61.376 50.5412C61.233 50.7532 61.089 51.0082 60.879 51.1252C60.372 51.4072 60.053 51.9102 59.551 52.1852C59.047 52.4612 58.548 52.7492 58.026 52.9872C57.309 53.3152 56.607 53.6602 55.972 54.1352C55.663 54.3672 55.326 54.5632 54.996 54.7662C54.624 54.9952 54.291 55.2662 53.983 55.5782C53.489 56.0802 52.971 56.5572 52.471 57.0532C52.263 57.2592 52.069 57.4802 51.882 57.7062C51.65 57.9862 51.452 58.2962 51.202 58.5582C50.953 58.8192 50.684 59.0782 50.379 59.2642C49.742 59.6522 49.191 60.1442 48.621 60.6142C48.488 60.7242 48.399 60.8852 48.283 61.0172C47.99 61.3512 47.703 61.6922 47.394 62.0112C46.994 62.4242 46.565 62.8082 46.165 63.2212C45.818 63.5792 45.432 63.8822 44.987 64.1032C44.367 64.4112 43.751 64.7332 43.113 64.9982C42.728 65.1582 42.307 65.2432 41.895 65.3252C41.004 65.5032 40.124 65.4502 39.251 65.1832C38.702 65.0152 38.138 64.8942 37.586 64.7352C37.351 64.6672 37.075 64.6082 36.913 64.4492C36.464 64.0082 35.824 63.8712 35.387 63.4252C34.944 62.9722 34.471 62.5462 34.054 62.0712C33.553 61.5002 32.948 61.0592 32.375 60.5742C31.573 59.8952 30.736 59.2812 29.755 58.8852C29.712 58.8672 29.67 58.8442 29.63 58.8202C28.796 58.3082 27.916 57.9032 26.983 57.6022C26.544 57.4602 26.183 57.1772 25.815 56.8972C25.247 56.4652 24.638 56.0852 24.043 55.6882C23.967 55.6372 23.873 55.6082 23.783 55.5842C23.197 55.4322 22.667 55.1622 22.15 54.8532C21.789 54.6362 21.411 54.4422 21.027 54.2682C20.507 54.0332 20.039 53.7282 19.642 53.3182C19.176 52.8382 18.685 52.3772 18.26 51.8622C17.383 50.7982 16.898 49.5722 16.877 48.1792C16.873 47.8862 16.876 47.5922 16.876 47.2992C16.847 47.2992 16.817 47.2992 16.787 47.2992ZM29.778 21.3011C28.586 21.4131 27.529 21.4771 26.608 22.0931C26.453 22.1971 26.282 22.2851 26.107 22.3491C25.405 22.6051 24.85 23.0671 24.331 23.5851C24.005 23.9111 23.713 24.2601 23.507 24.6761C23.227 25.2441 22.944 25.8111 22.669 26.3821C22.489 26.7551 22.399 27.1541 22.354 27.5661C22.314 27.9271 22.267 28.2901 22.189 28.6441C22.041 29.3102 21.896 29.9741 21.946 30.6631C21.952 30.7442 21.948 30.8301 21.927 30.9081C21.737 31.6091 21.591 32.3281 21.333 33.0051C21.119 33.5672 21.013 34.1231 21.013 34.7182C21.012 35.1972 20.99 35.6802 20.923 36.1542C20.817 36.9092 20.683 37.6602 20.526 38.4062C20.439 38.8152 20.305 39.2192 20.152 39.6092C19.981 40.0462 19.774 40.4682 19.568 40.8902C19.333 41.3752 19.09 41.8572 18.835 42.3322C18.641 42.6942 18.434 43.0492 18.216 43.3972C17.546 44.4652 17.341 45.6622 17.237 46.8872C17.229 46.9792 17.253 47.0732 17.267 47.1662C17.365 47.7792 17.456 48.3952 17.566 49.0062C17.609 49.2472 17.676 49.4862 17.763 49.7142C17.868 49.9872 18.004 50.2492 18.131 50.5142C18.32 50.9082 18.558 51.2692 18.873 51.5772C19.284 51.9792 19.697 52.3792 20.104 52.7852C20.45 53.1292 20.848 53.3882 21.288 53.5972C21.733 53.8082 22.174 54.0312 22.598 54.2792C23.037 54.5362 23.485 54.7572 23.977 54.8892C24.101 54.9232 24.229 54.9652 24.335 55.0332C24.927 55.4142 25.554 55.7542 26.09 56.2032C26.63 56.6552 27.222 56.9382 27.879 57.1432C28.258 57.2602 28.63 57.4132 28.985 57.5912C29.677 57.9372 30.362 58.3002 31.036 58.6802C31.37 58.8702 31.701 59.0842 31.986 59.3392C33.089 60.3252 34.177 61.3272 35.119 62.4732C35.172 62.5362 35.233 62.5922 35.289 62.6522C35.838 63.2472 36.49 63.6992 37.225 64.0342C37.417 64.1222 37.602 64.2292 37.801 64.2982C38.065 64.3882 38.335 64.4672 38.609 64.5192C39.034 64.6002 39.464 64.6662 39.895 64.7182C40.254 64.7622 40.617 64.8032 40.977 64.7962C41.304 64.7902 41.634 64.7392 41.953 64.6672C42.294 64.5912 42.64 64.5012 42.956 64.3562C43.52 64.0952 44.062 63.7872 44.614 63.5022C45.026 63.2892 45.375 63.0012 45.696 62.6672C46.077 62.2692 46.489 61.9022 46.874 61.5072C47.16 61.2152 47.426 60.9032 47.697 60.5962C47.829 60.4472 47.932 60.2672 48.082 60.1412C48.701 59.6202 49.302 59.0772 50.005 58.6602C50.251 58.5142 50.462 58.2952 50.658 58.0802C50.854 57.8642 51.004 57.6072 51.187 57.3782C51.407 57.1042 51.626 56.8262 51.873 56.5782C52.428 56.0212 52.992 55.4732 53.569 54.9392C53.835 54.6942 54.123 54.4652 54.43 54.2752C54.969 53.9422 55.518 53.6232 56.083 53.3392C56.816 52.9692 57.563 52.6262 58.314 52.2962C59.255 51.8832 60.069 51.3072 60.741 50.5292C60.841 50.4142 60.956 50.3112 61.049 50.1902C61.169 50.0332 61.29 49.8732 61.382 49.7002C61.656 49.1812 61.924 48.6592 62.178 48.1312C62.289 47.9002 62.381 47.6562 62.446 47.4082C62.523 47.1142 62.563 46.8102 62.619 46.5102C62.7 46.0782 62.701 45.6462 62.629 45.2142C62.532 44.6352 62.426 44.0582 62.331 43.4792C62.258 43.0332 62.089 42.6262 61.877 42.2292C61.634 41.7742 61.398 41.3142 61.189 40.8432C60.997 40.4112 60.778 40.0012 60.486 39.6282C60.378 39.4912 60.274 39.3412 60.211 39.1802C59.915 38.4282 59.579 37.6922 59.403 36.8942C59.338 36.6042 59.181 36.3272 59.031 36.0651C58.885 35.8122 58.68 35.5942 58.525 35.3462C58.308 34.9992 58.099 34.6452 57.91 34.2822C57.684 33.8451 57.508 33.3801 57.266 32.9531C56.874 32.2601 56.598 31.5392 56.483 30.7462C56.367 29.9461 56.176 29.1572 56.051 28.3581C55.952 27.7221 55.94 27.0701 55.823 26.4371C55.576 25.0951 55.052 23.8842 54.009 22.9471C53.809 22.7671 53.62 22.5731 53.439 22.3721C52.648 21.4951 51.659 20.9591 50.51 20.7461C49.324 20.5261 48.143 20.3281 46.919 20.6231C46.024 20.8391 45.074 20.8031 44.2 21.1511C44.178 21.1601 44.154 21.1661 44.131 21.1661C43.323 21.1931 42.514 21.2151 41.706 21.2451C41.404 21.2571 41.097 21.2581 40.801 21.3131C40.503 21.3691 40.221 21.5001 39.925 21.5731C39.505 21.6771 39.082 21.7721 38.656 21.8461C38.206 21.9231 37.746 21.9481 37.298 22.0361C36.484 22.1971 35.681 22.2291 34.851 22.1201C33.699 21.9681 32.547 21.8461 31.414 21.5671C30.836 21.4251 30.237 21.3731 29.778 21.3011Z" fill="#AC6B34"/>
<path d="M31.125 23.4802C32.01 23.4502 32.887 23.5232 33.746 23.7362C34.095 23.8222 34.457 23.9272 34.763 24.1092C35.276 24.4132 35.807 24.4522 36.359 24.3312C36.781 24.2382 37.196 24.1012 37.608 23.9672C38.404 23.7072 39.211 23.5192 40.049 23.4672C40.447 23.4422 40.842 23.3792 41.239 23.3372C41.944 23.2642 42.653 23.2372 43.333 23.4682C44.889 23.9962 46.449 23.9312 48.02 23.5572C48.625 23.4132 49.232 23.2772 49.843 23.1612C50.117 23.1092 50.402 23.1012 50.683 23.0982C51.307 23.0922 51.791 23.3802 52.144 23.8762C52.306 24.1032 52.438 24.3592 52.542 24.6182C52.825 25.3182 53.17 25.9812 53.605 26.5992C53.945 27.0832 54.157 27.6102 54.071 28.2172C54.043 28.4132 54 28.6092 53.944 28.8002C53.875 29.0362 53.798 29.2722 53.701 29.4982C53.438 30.1132 53.567 30.6512 54.024 31.1112C54.32 31.4102 54.623 31.7132 54.965 31.9562C56.137 32.7882 56.916 33.9042 57.413 35.2352C57.659 35.8942 57.908 36.5522 58.147 37.2152C58.497 38.1832 58.675 39.1882 58.713 40.2132C58.756 41.3492 59.1 42.3942 59.714 43.3262C60.439 44.4262 60.432 45.5222 59.891 46.6642C59.597 47.2852 59.192 47.8302 58.716 48.3242C58.361 48.6912 57.921 48.8992 57.431 49.0132C57.225 49.0602 57.019 49.1092 56.811 49.1462C55.964 49.2952 55.279 49.7292 54.727 50.3702C54.031 51.1792 53.345 51.9992 52.677 52.8332C52.16 53.4782 51.606 54.0792 50.915 54.5412C50.701 54.6852 50.481 54.8232 50.252 54.9402C49.827 55.1582 49.446 55.4342 49.173 55.8252C48.724 56.4692 48.302 57.1332 47.866 57.7872C47.444 58.4212 47.039 59.0692 46.59 59.6832C46.073 60.3882 45.426 60.9722 44.727 61.4952C44.549 61.6282 44.359 61.7472 44.163 61.8522C43.614 62.1452 43.059 62.4242 42.508 62.7132C42.253 62.8472 41.987 62.9252 41.698 62.9082C41.288 62.8842 40.876 62.8702 40.468 62.8302C40.125 62.7962 39.802 62.6802 39.519 62.4802C39.308 62.3322 39.095 62.1812 38.91 62.0042C38.409 61.5262 37.84 61.1632 37.188 60.9352C36.522 60.7022 35.951 60.3232 35.438 59.8442C35.215 59.6362 34.975 59.4452 34.729 59.2652C34.182 58.8652 33.798 58.3452 33.538 57.7252C33.384 57.3572 33.225 56.9912 33.071 56.6232C32.838 56.0662 32.445 55.6752 31.896 55.4192C31.011 55.0082 30.089 54.7622 29.112 54.7372C28.244 54.7142 27.375 54.7062 26.506 54.6882C25.576 54.6682 24.691 54.4562 23.867 54.0222C22.818 53.4702 21.775 52.9082 20.73 52.3472C19.996 51.9522 19.508 51.3272 19.164 50.5902C19.053 50.3532 19.007 50.0752 18.983 49.8112C18.942 49.3802 18.944 48.9442 18.927 48.5112C18.925 48.4522 18.921 48.3922 18.903 48.3372C18.739 47.8452 18.754 47.3472 18.828 46.8412C19.006 45.6152 19.463 44.5132 20.265 43.5642C20.75 42.9902 21.263 42.4392 21.735 41.8552C22.081 41.4282 22.389 40.9692 22.7 40.5142C22.894 40.2312 22.907 39.9272 22.74 39.6152C22.403 38.9872 22.392 38.3092 22.465 37.6232C22.493 37.3552 22.535 37.0882 22.575 36.8212C22.681 36.1182 22.63 35.4182 22.559 34.7152C22.388 32.9972 22.682 31.3682 23.566 29.8702C24.18 28.8292 24.824 27.8052 25.45 26.7712C25.706 26.3502 25.976 25.9352 26.195 25.4952C26.579 24.7252 27.191 24.2392 27.974 23.9292C28.83 23.5912 29.723 23.4912 30.632 23.4802C30.796 23.4782 30.961 23.4802 31.125 23.4802ZM31.02 24.2242C30.696 24.2242 30.295 24.2022 29.898 24.2282C29.106 24.2812 28.345 24.4622 27.641 24.8482C27.313 25.0282 27.056 25.2712 26.87 25.5982C26.063 27.0152 25.25 28.4292 24.439 29.8452C23.598 31.3162 23.337 32.9122 23.518 34.5712C23.627 35.5742 23.613 36.5582 23.456 37.5502C23.372 38.0842 23.349 38.6302 23.534 39.1532C23.745 39.7522 23.676 40.3222 23.333 40.8382C22.971 41.3842 22.582 41.9152 22.168 42.4232C21.678 43.0232 21.145 43.5882 20.638 44.1742C20.245 44.6302 19.934 45.1392 19.685 45.6892C19.564 45.9562 19.527 46.2212 19.56 46.5092C19.591 46.7772 19.622 47.0482 19.61 47.3162C19.586 47.8902 19.545 48.4632 19.492 49.0342C19.454 49.4562 19.494 49.8642 19.717 50.2242C20.041 50.7472 20.429 51.2182 20.988 51.5132C22.129 52.1172 23.269 52.7242 24.414 53.3182C25.049 53.6472 25.733 53.8082 26.447 53.8322C27.28 53.8602 28.113 53.8822 28.946 53.9042C30.137 53.9342 31.268 54.1992 32.341 54.7242C33.005 55.0482 33.486 55.5332 33.784 56.2032C33.946 56.5682 34.107 56.9332 34.257 57.3032C34.473 57.8382 34.791 58.2882 35.263 58.6312C35.529 58.8242 35.78 59.0382 36.022 59.2602C36.452 59.6522 36.921 59.9712 37.475 60.1662C38.217 60.4252 38.87 60.8342 39.441 61.3742C39.56 61.4872 39.687 61.5932 39.822 61.6872C40.494 62.1572 41.242 62.0742 41.992 61.9752C42.025 61.9702 42.056 61.9472 42.087 61.9302C42.675 61.6112 43.276 61.3152 43.846 60.9672C44.645 60.4792 45.327 59.8432 45.887 59.0962C46.337 58.4972 46.726 57.8522 47.146 57.2302C47.552 56.6272 47.947 56.0152 48.376 55.4282C48.813 54.8322 49.372 54.3742 50.065 54.0872C50.269 54.0022 50.456 53.8722 50.638 53.7452C51.144 53.3932 51.552 52.9412 51.951 52.4762C52.723 51.5762 53.503 50.6822 54.299 49.8042C54.931 49.1082 55.71 48.6462 56.644 48.4652C56.84 48.4272 57.032 48.3752 57.228 48.3352C57.672 48.2442 58.029 48.0142 58.319 47.6702C58.842 47.0492 59.201 46.3422 59.406 45.5592C59.541 45.0432 59.47 44.5572 59.125 44.1302C59.051 44.0382 58.98 43.9442 58.917 43.8452C58.325 42.9132 57.892 41.9232 57.785 40.8092C57.717 40.0972 57.672 39.3782 57.542 38.6772C57.331 37.5422 56.9 36.4712 56.486 35.3982C56.075 34.3342 55.458 33.4242 54.554 32.7172C54.406 32.6012 54.259 32.4812 54.131 32.3462C53.825 32.0222 53.506 31.7062 53.236 31.3532C52.808 30.7952 52.701 30.1642 52.93 29.4892C53.021 29.2222 53.113 28.9562 53.218 28.6952C53.463 28.0832 53.423 27.5122 53.041 26.9572C52.614 26.3362 52.296 25.6552 52.013 24.9572C51.921 24.7302 51.807 24.5072 51.671 24.3032C51.45 23.9712 51.13 23.7822 50.722 23.7942C50.453 23.8022 50.18 23.8152 49.919 23.8722C49.403 23.9842 48.893 24.1222 48.383 24.2582C46.645 24.7192 44.91 24.7982 43.179 24.2222C42.539 24.0092 41.882 24.0422 41.225 24.1122C40.874 24.1492 40.525 24.2002 40.174 24.2232C39.516 24.2682 38.871 24.3692 38.238 24.5642C37.678 24.7372 37.114 24.9072 36.542 25.0322C35.811 25.1922 35.102 25.1352 34.434 24.7332C34.189 24.5862 33.894 24.5092 33.612 24.4422C32.785 24.2442 31.945 24.1622 31.02 24.2242Z" fill="#AC6B34"/>
<path d="M31.163 26.0713C31.421 26.0573 31.679 26.0443 31.936 26.0283C32.273 26.0063 32.59 26.0563 32.879 26.2473C33.152 26.4283 33.459 26.4943 33.783 26.4903C34.401 26.4833 34.929 26.6833 35.368 27.1283C36.126 27.8943 37.063 27.9833 38.051 27.7763C39.23 27.5293 40.328 27.0503 41.411 26.5353C41.781 26.3593 42.157 26.1823 42.549 26.0733C43.215 25.8883 43.898 25.8833 44.567 26.0813C45.757 26.4333 46.937 26.3173 48.115 26.0293C48.294 25.9853 48.465 25.8963 48.634 25.8173C48.868 25.7083 49.092 25.5773 49.328 25.4753C49.73 25.3013 50.126 25.3103 50.509 25.5423C50.66 25.6333 50.821 25.7053 50.973 25.7953C51.444 26.0733 51.537 26.3853 51.254 26.8493C50.853 27.5073 50.648 28.2233 50.599 28.9823C50.528 30.0733 50.81 31.0533 51.581 31.8593C51.956 32.2523 52.296 32.6683 52.546 33.1533C52.709 33.4693 52.958 33.6953 53.292 33.8163C54.033 34.0843 54.579 34.5733 54.963 35.2553C55.049 35.4083 55.146 35.5563 55.248 35.6993C55.619 36.2243 55.801 36.8143 55.82 37.4493C55.843 38.2253 56.134 38.9363 56.323 39.6733C56.356 39.8033 56.44 39.9323 56.529 40.0373C56.967 40.5513 56.949 41.1043 56.695 41.6853C56.583 41.9433 56.46 42.1973 56.359 42.4603C56.288 42.6453 56.232 42.8393 56.195 43.0343C56.122 43.4173 56.163 43.7703 56.436 44.0893C56.641 44.3273 56.813 44.6003 56.968 44.8753C57.399 45.6413 57.194 46.4603 56.445 46.9183C56.158 47.0943 55.845 47.2573 55.522 47.3383C54.648 47.5573 53.927 48.0173 53.309 48.6483C52.948 49.0163 52.616 49.4133 52.289 49.8123C52.024 50.1363 51.717 50.3873 51.345 50.5843C50.366 51.1053 49.52 51.7723 48.978 52.7753C48.749 53.1973 48.469 53.5923 48.202 53.9923C47.812 54.5723 47.28 54.9433 46.592 55.1063C46.218 55.1963 45.852 55.3313 45.493 55.4743C44.991 55.6753 44.631 56.0303 44.443 56.5493C44.229 57.1413 43.894 57.6653 43.509 58.1563C43.329 58.3863 43.129 58.6053 42.915 58.8033C42.547 59.1463 42.107 59.3223 41.595 59.2643C41.293 59.2293 41.003 59.2733 40.742 59.4183C39.956 59.8543 39.237 59.5533 38.531 59.2163C38.26 59.0883 38.087 58.8303 37.958 58.5633C37.701 58.0293 37.338 57.5733 36.981 57.1053C36.721 56.7643 36.507 56.3753 36.34 55.9783C36.08 55.3613 35.758 54.8133 35.226 54.3833C34.854 54.0813 34.529 53.7193 34.199 53.3683C33.83 52.9763 33.397 52.7723 32.852 52.8093C32.358 52.8413 31.871 52.7883 31.382 52.6973C31.101 52.6443 30.795 52.6573 30.511 52.7063C30.009 52.7923 29.584 52.6673 29.195 52.3583C28.853 52.0863 28.491 51.8433 28.053 51.7573C27.174 51.5833 26.291 51.4663 25.396 51.6233C24.921 51.7073 24.468 51.6683 24.016 51.4843C23.67 51.3443 23.306 51.2353 22.941 51.1573C22.449 51.0513 22.031 50.8263 21.719 50.4433C21.435 50.0963 21.112 49.8253 20.682 49.6923C20.351 49.5903 20.217 49.3293 20.196 49.0243C20.128 48.0633 20.084 47.0993 20.338 46.1533C20.464 45.6853 20.721 45.3143 21.11 45.0103C22.338 44.0483 23.307 42.8673 23.999 41.4663C24.171 41.1193 24.323 40.7623 24.502 40.4183C24.71 40.0173 24.773 39.5933 24.728 39.1543C24.651 38.4003 24.704 37.6523 24.788 36.9053C24.864 36.2223 24.862 35.5483 24.654 34.8833C24.406 34.0903 24.466 33.3133 24.778 32.5423C25.213 31.4683 25.747 30.4563 26.522 29.5853C26.616 29.4793 26.701 29.3673 26.793 29.2603C26.988 29.0313 27.111 28.7733 27.159 28.4733C27.25 27.9173 27.525 27.4623 27.961 27.1073C28.17 26.9363 28.382 26.7683 28.604 26.6153C29.16 26.2303 29.772 26.0233 30.458 26.0623C30.692 26.0753 30.928 26.0643 31.162 26.0643C31.162 26.0663 31.163 26.0693 31.163 26.0713ZM20.733 49.2353C21.35 49.3313 21.762 49.6953 22.124 50.1483C22.333 50.4103 22.624 50.5623 22.952 50.6543C23.448 50.7933 23.941 50.9443 24.428 51.1093C24.681 51.1953 24.932 51.2413 25.189 51.1853C25.854 51.0413 26.518 51.0853 27.187 51.1493C28.059 51.2333 28.869 51.4603 29.547 52.0503C29.802 52.2723 30.102 52.3423 30.435 52.2733C30.892 52.1783 31.341 52.2143 31.794 52.3253C31.995 52.3743 32.214 52.3623 32.424 52.3613C32.694 52.3613 32.964 52.3373 33.233 52.3353C33.826 52.3293 34.372 52.4923 34.855 52.8353C35.247 53.1143 35.627 53.4103 36.008 53.7043C36.536 54.1103 36.894 54.6353 37.1 55.2683C37.198 55.5693 37.275 55.8833 37.418 56.1623C37.81 56.9233 38.21 57.6773 38.552 58.4643C38.749 58.9203 39.656 59.2763 40.136 59.1483C40.226 59.1243 40.311 59.0823 40.396 59.0413C40.512 58.9863 40.625 58.9243 40.74 58.8643C40.986 58.7363 41.25 58.6693 41.523 58.7083C41.959 58.7713 42.305 58.6093 42.603 58.3143C42.745 58.1753 42.88 58.0263 43.004 57.8703C43.377 57.3993 43.706 56.9003 43.921 56.3353C44.175 55.6693 44.651 55.2263 45.295 54.9493C45.489 54.8663 45.687 54.7933 45.885 54.7183C46.104 54.6363 46.324 54.5543 46.546 54.4773C47.079 54.2933 47.481 53.9493 47.776 53.4743C48.043 53.0463 48.315 52.6213 48.576 52.1893C48.803 51.8153 49.056 51.4643 49.388 51.1763C49.813 50.8073 50.247 50.4473 50.666 50.0713C50.989 49.7823 51.312 49.4903 51.604 49.1713C52.053 48.6823 52.542 48.2503 53.127 47.9333C53.55 47.7043 53.969 47.4653 54.403 47.2593C54.687 47.1243 54.988 47.0153 55.293 46.9353C55.663 46.8383 55.993 46.6723 56.308 46.4633C56.553 46.3003 56.667 46.0713 56.674 45.7803C56.68 45.5273 56.639 45.2893 56.506 45.0713C56.378 44.8603 56.259 44.6433 56.12 44.4403C55.813 43.9933 55.746 43.5043 55.885 42.9943C56.007 42.5423 56.156 42.0963 56.313 41.6553C56.47 41.2133 56.385 40.8493 56.094 40.4793C55.415 39.6173 54.921 38.6713 54.898 37.5353C54.888 37.0333 54.746 36.5653 54.469 36.1393C54.348 35.9533 54.232 35.7603 54.136 35.5603C53.903 35.0763 53.548 34.7163 53.075 34.4703C52.651 34.2493 52.351 33.9143 52.165 33.4783C51.936 32.9423 51.602 32.4793 51.223 32.0413C50.891 31.6563 50.633 31.2243 50.478 30.7343C50.044 29.3573 50.204 28.0473 50.919 26.7993C50.987 26.6803 51.048 26.5573 51.125 26.4113C50.844 26.2713 50.589 26.1573 50.346 26.0213C50.104 25.8843 49.878 25.8963 49.648 26.0353C49.557 26.0903 49.462 26.1363 49.374 26.1943C48.887 26.5183 48.351 26.7023 47.777 26.8093C46.676 27.0143 45.586 27.0723 44.511 26.6813C43.641 26.3653 42.803 26.4663 41.99 26.8713C41.569 27.0803 41.157 27.3053 40.735 27.5103C39.92 27.9063 39.082 28.2463 38.188 28.4153C36.954 28.6503 35.823 28.4743 34.9 27.5403C34.61 27.2473 34.268 27.1133 33.858 27.1123C33.429 27.1113 33.014 27.0293 32.65 26.7873C32.443 26.6503 32.226 26.6083 31.983 26.6203C31.467 26.6443 30.95 26.6733 30.435 26.6653C29.947 26.6573 29.502 26.7693 29.102 27.0393C28.83 27.2223 28.566 27.4193 28.313 27.6283C28.063 27.8343 27.866 28.0993 27.821 28.4213C27.734 29.0483 27.4 29.5293 26.991 29.9793C26.222 30.8243 25.679 31.8043 25.253 32.8583C25.01 33.4603 24.953 34.0703 25.181 34.6793C25.469 35.4483 25.476 36.2333 25.43 37.0383C25.392 37.6923 25.431 38.3503 25.444 39.0073C25.454 39.5103 25.531 40.0183 25.325 40.5023C24.852 41.6173 24.344 42.7113 23.549 43.6473C22.909 44.4003 22.277 45.1553 21.441 45.7073C21.174 45.8823 21.03 46.1553 20.944 46.4543C20.682 47.3603 20.726 48.2863 20.733 49.2353Z" fill="#AC6B34"/>
<path d="M54.236 45.3632C53.586 45.3382 53.002 45.5332 52.474 45.9322C51.815 46.4312 51.206 46.9762 50.705 47.6382C49.97 48.6092 49.108 49.4472 48.114 50.1572C47.434 50.6432 46.835 51.2252 46.34 51.9052C46.047 52.3082 45.693 52.6472 45.293 52.9432C45.077 53.1032 44.865 53.2722 44.663 53.4512C44.196 53.8662 43.7 54.2422 43.134 54.5122C42.672 54.7322 42.37 55.0812 42.193 55.5542C42.136 55.7082 42.081 55.8672 41.994 56.0042C41.882 56.1792 41.761 56.3652 41.602 56.4922C41.346 56.6952 41.064 56.8722 40.776 57.0272C40.272 57.2962 39.818 57.1752 39.548 56.6742C39.372 56.3472 39.253 55.9852 39.135 55.6312C38.946 55.0642 38.789 54.4862 38.596 53.9202C38.506 53.6562 38.371 53.4042 38.241 53.1562C37.988 52.6772 37.614 52.3432 37.074 52.2122C36.689 52.1182 36.36 51.9152 36.074 51.6462C35.708 51.3012 35.288 51.0602 34.811 50.9012C34.444 50.7792 34.085 50.6312 33.73 50.4772C33.169 50.2332 32.594 50.1962 32.005 50.3262C31.303 50.4802 30.612 50.4822 29.922 50.2512C29.634 50.1552 29.326 50.1182 29.03 50.0462C28.461 49.9062 27.889 49.7762 27.327 49.6122C26.911 49.4902 26.524 49.4732 26.143 49.7112C25.336 50.2162 24.539 50.1102 23.743 49.6682C23.416 49.4872 23.069 49.3412 22.734 49.1742C22.528 49.0712 22.318 48.9712 22.131 48.8402C22.061 48.7912 22.029 48.6592 22.018 48.5612C21.963 48.0742 22.099 47.6192 22.359 47.2222C22.635 46.8022 22.942 46.3972 23.28 46.0262C23.883 45.3642 24.579 44.8012 25.317 44.2962C25.721 44.0192 26.064 43.6902 26.316 43.2702C26.666 42.6872 27.012 42.1012 27.353 41.5122C27.503 41.2522 27.508 40.9732 27.388 40.6982C26.868 39.5082 27.005 38.3392 27.498 37.1802C27.649 36.8242 27.807 36.4702 27.96 36.1152C28.18 35.6052 28.19 35.0952 27.98 34.5752C27.748 33.9972 27.563 33.4052 27.472 32.7852C27.365 32.0472 27.513 31.3942 28.022 30.8232C28.597 30.1782 29.26 29.6412 29.961 29.1452C30.471 28.7832 31.025 28.6852 31.634 28.8502C31.835 28.9042 32.054 28.9312 32.261 28.9172C32.815 28.8782 33.236 29.0872 33.575 29.5182C33.925 29.9622 34.402 30.1592 34.963 30.1602C35.01 30.1602 35.057 30.1662 35.104 30.1642C35.762 30.1402 36.387 30.2662 36.981 30.5522C37.491 30.7982 38.025 30.8072 38.564 30.6722C38.813 30.6092 39.062 30.5352 39.303 30.4432C40.924 29.8222 42.547 29.2022 44.162 28.5652C44.617 28.3852 45.072 28.2822 45.563 28.2792C46.208 28.2752 46.853 28.2232 47.498 28.1992C47.72 28.1912 47.945 28.1932 48.166 28.2132C48.479 28.2422 48.622 28.3982 48.635 28.7192C48.642 28.8712 48.625 29.0242 48.604 29.1752C48.575 29.3842 48.535 29.5922 48.493 29.7992C48.332 30.6002 48.64 31.2232 49.235 31.7312C49.422 31.8912 49.626 32.0312 49.823 32.1792C50.01 32.3202 50.204 32.4532 50.387 32.6012C50.743 32.8882 50.999 33.2512 51.138 33.6862C51.448 34.6562 51.931 35.5332 52.492 36.3802C52.801 36.8472 53.034 37.3652 53.285 37.8692C53.479 38.2572 53.625 38.6702 53.83 39.0512C54.17 39.6822 54.235 40.3492 54.12 41.0342C54.059 41.3952 54.143 41.6852 54.31 42.0022C54.637 42.6242 54.922 43.2692 55.205 43.9132C55.335 44.2112 55.316 44.5362 55.257 44.8502C55.198 45.1612 54.986 45.3372 54.668 45.3612C54.528 45.3722 54.386 45.3632 54.236 45.3632ZM54.696 44.7962C54.647 44.6032 54.634 44.4352 54.564 44.2972C54.221 43.6172 53.959 42.8942 53.504 42.2732C53.257 41.9352 53.173 41.5522 53.198 41.1412C53.21 40.9422 53.22 40.7422 53.233 40.5432C53.258 40.1592 53.171 39.8042 53.002 39.4562C52.845 39.1292 52.73 38.7822 52.589 38.4472C52.274 37.7022 51.949 36.9612 51.638 36.2152C51.314 35.4362 50.994 34.6552 50.689 33.8692C50.549 33.5092 50.36 33.1942 50.054 32.9572C49.832 32.7852 49.59 32.6352 49.377 32.4522C49.066 32.1862 48.747 31.9222 48.479 31.6162C48.101 31.1842 47.934 30.6612 47.997 30.0812C48.028 29.8022 48.084 29.5252 48.122 29.2472C48.146 29.0772 48.158 28.9072 48.18 28.6932C48.001 28.7282 47.877 28.7532 47.754 28.7782C47.225 28.8822 46.699 29.0432 46.165 29.0762C45.347 29.1272 44.563 29.2662 43.822 29.6222C43.759 29.6522 43.69 29.6692 43.623 29.6912C42.185 30.1612 40.748 30.6362 39.307 31.0982C38.757 31.2752 38.19 31.4132 37.612 31.2762C37.261 31.1932 36.917 31.0642 36.586 30.9192C36.17 30.7372 35.748 30.6202 35.292 30.6342C35.14 30.6392 34.987 30.6342 34.835 30.6232C34.206 30.5782 33.68 30.3322 33.29 29.8252C33.232 29.7502 33.171 29.6792 33.117 29.6022C32.94 29.3532 32.701 29.2432 32.396 29.2302C32.128 29.2182 31.852 29.2042 31.594 29.1362C31.09 29.0032 30.64 29.0972 30.221 29.3812C29.494 29.8722 28.877 30.4792 28.357 31.1832C28.146 31.4682 28.054 31.7942 28.122 32.1482C28.18 32.4462 28.234 32.7492 28.331 33.0352C28.478 33.4682 28.659 33.8892 28.829 34.3142C29.106 35.0102 29.065 35.6932 28.732 36.3582C28.538 36.7462 28.333 37.1292 28.123 37.5092C27.596 38.4612 27.492 39.4372 27.932 40.4502C28.132 40.9112 28.116 41.3682 27.883 41.8092C27.647 42.2542 27.398 42.6932 27.144 43.1292C26.771 43.7692 26.236 44.2522 25.645 44.6922C24.986 45.1812 24.343 45.6952 23.731 46.2412C23.331 46.5982 22.979 47.0162 22.645 47.4372C22.475 47.6512 22.366 47.9252 22.277 48.1882C22.16 48.5312 22.257 48.6522 22.606 48.7352C23.094 48.8502 23.592 48.9472 24.064 49.1142C24.731 49.3502 25.353 49.3972 25.981 48.9962C26.421 48.7152 26.91 48.7302 27.41 48.8662C28.099 49.0542 28.797 49.2112 29.492 49.3822C29.731 49.4412 29.977 49.4822 30.206 49.5682C30.773 49.7822 31.35 49.8112 31.939 49.7112C32.537 49.6082 33.107 49.7002 33.657 49.9442C34.215 50.1922 34.78 50.4242 35.325 50.6982C35.603 50.8372 35.883 51.0152 36.092 51.2402C36.437 51.6112 36.817 51.9032 37.294 52.0702C37.759 52.2322 38.1 52.5482 38.339 52.9692C38.849 53.8662 39.368 54.7602 39.701 55.7462C39.771 55.9552 39.868 56.1602 39.985 56.3482C40.125 56.5722 40.276 56.5942 40.486 56.4322C40.932 56.0902 41.368 55.7562 41.551 55.1682C41.706 54.6702 42.02 54.2462 42.499 53.9862C43.04 53.6912 43.511 53.3072 43.959 52.8892C44.139 52.7212 44.323 52.5542 44.524 52.4132C45.05 52.0472 45.484 51.5932 45.887 51.0982C46.394 50.4742 46.99 49.9332 47.685 49.5342C48.729 48.9352 49.625 48.1782 50.381 47.2472C50.842 46.6782 51.395 46.2082 51.957 45.7422C52.627 45.1872 53.38 44.8932 54.246 44.8692C54.38 44.8652 54.514 44.8262 54.696 44.7962Z" fill="#AC6B34"/>
<path d="M24.426 48.4232C24.389 48.2822 24.373 48.1522 24.321 48.0382C24.229 47.8342 24.24 47.6472 24.379 47.4772C24.571 47.2422 24.774 47.0142 24.975 46.7862C25.029 46.7252 25.103 46.6812 25.156 46.6192C25.967 45.6682 26.995 44.9872 28.031 44.3162C28.563 43.9722 29.102 43.6382 29.627 43.2832C29.869 43.1192 30.089 42.9222 30.312 42.7332C30.475 42.5952 30.543 42.4152 30.52 42.1992C30.475 41.7542 30.432 41.3092 30.221 40.9042C29.901 40.2892 29.905 39.6392 30 38.9792C30.039 38.7122 30.107 38.4502 30.146 38.1832C30.213 37.7142 30.187 37.2532 30.058 36.7902C29.816 35.9202 29.611 35.0402 29.382 34.1672C29.299 33.8532 29.333 33.5622 29.484 33.2822C29.729 32.8262 29.929 32.3612 30.046 31.8482C30.218 31.0952 31.267 30.4812 32.012 30.6622C32.175 30.7012 32.335 30.8052 32.463 30.9172C32.628 31.0632 32.769 31.2412 32.905 31.4172C33.269 31.8882 33.706 32.2742 34.216 32.5772C34.75 32.8952 35.288 33.2082 35.825 33.5222C36.282 33.7892 36.77 33.8922 37.305 33.8902C38.612 33.8872 39.799 33.5332 40.903 32.8392C41.448 32.4972 42.033 32.2172 42.592 31.8952C42.937 31.6972 43.268 31.4722 43.606 31.2622C43.955 31.0452 44.296 30.8132 44.659 30.6242C44.861 30.5182 45.098 30.4622 45.326 30.4282C45.628 30.3842 45.863 30.5242 46.059 30.7592C46.276 31.0202 46.498 31.2822 46.753 31.5022C47.211 31.8982 47.437 32.3842 47.444 32.9822C47.447 33.2522 47.455 33.5222 47.453 33.7922C47.45 34.1412 47.523 34.4762 47.704 34.7692C47.926 35.1272 48.157 35.4862 48.434 35.8002C48.605 35.9942 48.851 36.1622 49.096 36.2442C49.831 36.4922 50.292 36.9372 50.417 37.7282C50.477 38.1052 50.703 38.4202 50.993 38.6742C51.229 38.8802 51.383 39.1342 51.52 39.4122C51.638 39.6502 51.8 39.8712 51.965 40.0822C52.395 40.6312 52.613 41.2522 52.587 41.9452C52.579 42.1722 52.523 42.4152 52.422 42.6172C52.112 43.2372 51.666 43.7462 51.066 44.1082C50.825 44.2532 50.577 44.3872 50.334 44.5282C49.908 44.7762 49.48 45.0202 49.058 45.2742C48.688 45.4972 48.403 45.8042 48.199 46.1862C48.022 46.5172 47.844 46.8482 47.665 47.1782C47.316 47.8232 46.82 48.3242 46.193 48.7052C45.417 49.1772 44.6 49.5692 43.744 49.8572C42.823 50.1672 42.238 50.7672 41.897 51.6522C41.757 52.0122 41.6 52.3672 41.438 52.7182C41.37 52.8652 41.29 53.0172 41.179 53.1322C40.885 53.4372 40.485 53.3912 40.257 53.0372C40.175 52.9092 40.11 52.7692 40.049 52.6302C39.733 51.9132 39.266 51.2962 38.774 50.6962C38.549 50.4202 38.275 50.1962 37.951 50.0452C37.266 49.7272 36.627 49.3342 36.043 48.8582C35.33 48.2762 34.503 48.0832 33.608 48.1212C33.412 48.1292 33.216 48.1862 33.023 48.2332C32.818 48.2832 32.617 48.3492 32.414 48.4062C32.029 48.5142 31.67 48.4382 31.333 48.2392C31.161 48.1372 30.996 48.0252 30.828 47.9182C30.463 47.6852 30.066 47.5522 29.632 47.5532C29.186 47.5542 28.74 47.5642 28.294 47.5762C27.898 47.5862 27.535 47.7092 27.201 47.9232C27.023 48.0372 26.846 48.1562 26.654 48.2412C26.475 48.3202 26.28 48.3712 26.087 48.4092C25.788 48.4672 25.486 48.5062 25.184 48.5482C24.996 48.5742 24.813 48.5772 24.648 48.4452C24.599 48.4072 24.503 48.4292 24.426 48.4232ZM40.812 52.3832C40.857 52.3062 40.907 52.2302 40.948 52.1482C41.148 51.7502 41.346 51.3502 41.544 50.9502C41.902 50.2252 42.434 49.6922 43.207 49.4142C43.483 49.3152 43.759 49.2102 44.022 49.0822C44.664 48.7692 45.307 48.4542 45.936 48.1142C46.442 47.8402 46.825 47.4262 47.114 46.9292C47.262 46.6762 47.41 46.4222 47.539 46.1592C47.875 45.4722 48.373 44.9472 49.044 44.5802C49.446 44.3602 49.84 44.1262 50.236 43.8972C50.439 43.7792 50.643 43.6632 50.84 43.5352C51.17 43.3212 51.445 43.0512 51.63 42.7002C51.683 42.6012 51.74 42.4792 51.729 42.3732C51.657 41.6602 51.581 40.9482 51.065 40.3752C50.849 40.1352 50.754 39.8342 50.724 39.5042C50.707 39.3262 50.648 39.1262 50.54 38.9872C50.188 38.5322 49.946 38.0352 49.83 37.4722C49.771 37.1882 49.595 36.9952 49.323 36.8852C49.128 36.8062 48.931 36.7222 48.749 36.6182C48.557 36.5072 48.355 36.3952 48.203 36.2392C47.791 35.8182 47.441 35.3472 47.21 34.7972C47.086 34.5012 47.011 34.1972 47.024 33.8742C47.038 33.5102 47.056 33.1472 47.064 32.7832C47.072 32.4192 46.997 32.0762 46.719 31.8182C46.461 31.5792 46.186 31.3592 45.919 31.1302C45.741 30.9782 45.567 30.9862 45.374 31.1122C44.903 31.4212 44.426 31.7212 43.949 32.0212C43.641 32.2152 43.336 32.4142 43.017 32.5882C42.358 32.9482 41.697 33.3052 41.026 33.6402C40.586 33.8592 40.134 34.0602 39.673 34.2302C38.919 34.5072 38.129 34.4722 37.34 34.4482C36.725 34.4292 36.158 34.2732 35.637 33.9552C35.066 33.6062 34.497 33.2532 33.935 32.8912C33.418 32.5592 32.964 32.1532 32.587 31.6632C32.48 31.5242 32.37 31.3832 32.237 31.2712C32.145 31.1932 32.015 31.1362 31.896 31.1192C31.467 31.0602 30.556 31.5882 30.517 32.1662C30.499 32.4372 30.362 32.7032 30.258 32.9642C30.18 33.1592 30.07 33.3412 29.973 33.5292C29.898 33.6712 29.886 33.8112 29.943 33.9682C30.257 34.8272 30.545 35.6972 30.88 36.5472C31.107 37.1232 31.185 37.7012 31.094 38.3062C31.063 38.5142 31.015 38.7202 30.973 38.9272C30.855 39.5002 30.847 40.0582 31.052 40.6242C31.449 41.7152 31.142 42.6992 30.221 43.3942C30.034 43.5352 29.844 43.6742 29.646 43.7992C29.17 44.1012 28.679 44.3802 28.212 44.6942C27.492 45.1782 26.786 45.6832 26.074 46.1802C25.532 46.5592 25.186 47.1072 24.814 47.6332C24.747 47.7282 24.704 47.8342 24.798 47.9172C24.857 47.9692 24.972 48.0092 25.042 47.9882C25.677 47.8002 26.352 47.7382 26.913 47.3172C27.293 47.0332 27.749 46.8982 28.233 46.8842C28.597 46.8742 28.96 46.8632 29.323 46.8402C30.104 46.7922 30.817 46.9852 31.449 47.4412C31.829 47.7162 32.209 47.7532 32.64 47.5812C33.305 47.3152 33.998 47.3522 34.69 47.4442C35.436 47.5442 36.061 47.9092 36.639 48.3652C37.112 48.7382 37.616 49.0572 38.162 49.3092C38.706 49.5612 39.153 49.9332 39.514 50.4102C39.691 50.6442 39.878 50.8722 40.037 51.1182C40.302 51.5292 40.549 51.9512 40.812 52.3832Z" fill="#AC6B34"/>
<path d="M45.814 36.1261C45.814 36.4311 45.81 36.7361 45.815 37.0421C45.827 37.7961 46.187 38.3401 46.853 38.6711C47.145 38.8161 47.461 38.9211 47.775 39.0101C48.276 39.1511 48.692 39.3951 49.039 39.7951C49.25 40.0381 49.528 40.2341 49.802 40.4091C50.151 40.6321 50.304 40.9251 50.346 41.3341C50.458 42.4281 50.041 43.0001 49.115 43.4781C48.97 43.5531 48.821 43.6241 48.669 43.6861C48.039 43.9441 47.408 44.1991 46.777 44.4541C46.364 44.6211 45.948 44.7811 45.536 44.9521C44.883 45.2231 44.397 45.6581 44.079 46.3081C43.498 47.4951 42.537 48.3651 41.551 49.2031C41.298 49.4181 40.99 49.5391 40.657 49.5911C40.288 49.6491 39.981 49.5501 39.75 49.2541C39.584 49.0411 39.417 48.8271 39.276 48.5991C39.113 48.3361 38.907 48.1531 38.603 48.0721C38.289 47.9891 38.026 47.8081 37.811 47.5681C37.548 47.2741 37.223 47.0781 36.876 46.8941C36.473 46.6811 36.083 46.4371 35.712 46.1711C35.357 45.9151 34.975 45.7701 34.544 45.7291C34.123 45.6881 33.704 45.6411 33.284 45.5931C33.011 45.5631 32.745 45.5801 32.49 45.6931C31.871 45.9671 31.244 45.8251 30.621 45.7161C30.414 45.6801 30.319 45.5361 30.329 45.3761C30.341 45.2031 30.511 45.0441 30.711 45.0251C30.85 45.0121 30.993 45.0211 31.127 44.9921C31.237 44.9691 31.35 44.9191 31.441 44.8531C31.984 44.4631 32.51 44.0471 33.063 43.6731C33.804 43.1721 34.435 42.5731 34.889 41.7971C34.948 41.6961 35.004 41.5921 35.05 41.4851C35.169 41.2141 35.16 40.9571 34.934 40.7421C34.68 40.5001 34.437 40.2401 34.154 40.0351C33.716 39.7161 33.362 39.3391 33.14 38.8441C32.913 38.3381 32.646 37.8601 32.266 37.4481C31.993 37.1531 31.893 36.7771 31.821 36.3921C31.73 35.9081 31.622 35.4271 31.546 34.9411C31.508 34.7001 31.485 34.4451 31.523 34.2081C31.616 33.6221 32.202 33.3891 32.62 33.8011C33.116 34.2911 33.698 34.5761 34.343 34.7801C34.532 34.8401 34.717 34.9231 34.892 35.0161C35.604 35.3931 36.364 35.4741 37.15 35.3991C37.833 35.3341 38.507 35.3321 39.17 35.5531C39.555 35.6821 39.94 35.6281 40.291 35.4211C40.563 35.2601 40.833 35.0911 41.086 34.9031C41.505 34.5911 41.955 34.3701 42.455 34.2051C43.066 34.0051 43.644 33.7091 44.236 33.4531C44.387 33.3871 44.53 33.3021 44.686 33.2531C44.932 33.1751 45.085 33.2551 45.202 33.4861C45.344 33.7691 45.505 34.0431 45.627 34.3341C45.721 34.5571 45.804 34.7971 45.826 35.0351C45.859 35.3961 45.835 35.7621 45.835 36.1261C45.828 36.1261 45.821 36.1261 45.814 36.1261ZM32.214 34.1081C32.067 34.3781 32.048 34.4811 32.113 34.7631C32.247 35.3461 32.378 35.9311 32.536 36.5081C32.59 36.7061 32.686 36.9141 32.823 37.0631C33.244 37.5231 33.524 38.0591 33.74 38.6351C33.875 38.9971 34.103 39.2871 34.4 39.5301C34.546 39.6491 34.697 39.7661 34.817 39.9081C35.408 40.6051 35.584 41.1821 35.188 41.9621C34.897 42.5371 34.523 43.0441 34.028 43.4511C33.702 43.7191 33.348 43.9521 33.004 44.1971C32.512 44.5471 32.017 44.8931 31.488 45.2651C31.807 45.3411 32.055 45.2881 32.297 45.1901C32.641 45.0491 32.995 45.0041 33.366 45.0531C33.808 45.1111 34.252 45.1631 34.696 45.1991C35.192 45.2401 35.62 45.4261 36.024 45.7121C36.387 45.9681 36.766 46.2071 37.16 46.4131C37.538 46.6121 37.894 46.8291 38.18 47.1511C38.355 47.3481 38.566 47.4901 38.829 47.5501C39.203 47.6361 39.478 47.8581 39.688 48.1761C39.824 48.3811 39.979 48.5741 40.124 48.7731C40.261 48.9621 40.45 49.0171 40.65 48.9201C40.89 48.8051 41.145 48.6861 41.337 48.5081C41.757 48.1171 42.138 47.6831 42.544 47.2761C42.929 46.8901 43.255 46.4621 43.48 45.9651C43.838 45.1741 44.436 44.6431 45.221 44.3031C45.382 44.2331 45.542 44.1591 45.705 44.0931C46.227 43.8821 46.754 43.6821 47.273 43.4621C47.791 43.2431 48.31 43.0221 48.815 42.7731C49.374 42.4971 49.705 42.0701 49.666 41.4021C49.653 41.1661 49.573 41.0181 49.394 40.8721C49.096 40.6271 48.808 40.3651 48.549 40.0801C48.337 39.8461 48.104 39.6711 47.805 39.5721C47.482 39.4661 47.156 39.3641 46.844 39.2311C45.849 38.8061 45.312 38.0611 45.314 36.9621C45.316 36.5161 45.302 36.0661 45.352 35.6251C45.431 34.9331 45.14 34.3801 44.782 33.8301C43.964 34.2651 43.133 34.6421 42.247 34.8921C42.071 34.9411 41.909 35.0531 41.753 35.1551C41.458 35.3471 41.176 35.5581 40.883 35.7541C40.249 36.1771 39.569 36.2991 38.837 36.0491C38.51 35.9371 38.173 35.9061 37.83 35.9221C37.572 35.9351 37.314 35.9471 37.056 35.9611C36.281 36.0041 35.539 35.8941 34.833 35.5451C34.424 35.3431 33.995 35.1781 33.569 35.0121C33.192 34.8641 32.848 34.6741 32.561 34.3841C32.466 34.2881 32.348 34.2141 32.214 34.1081Z" fill="#AC6B34"/>
<path d="M35.02 44.3163C34.917 44.3263 34.828 44.3343 34.739 44.3433C35.338 43.9553 35.597 43.3663 35.795 42.7253C35.961 42.1873 36.174 41.6653 36.346 41.1283C36.587 40.3733 36.539 39.6403 36.081 38.9733C35.929 38.7533 35.727 38.5673 35.538 38.3753C35.27 38.1043 35.047 37.8053 34.929 37.4393C34.89 37.3173 34.855 37.1903 34.845 37.0633C34.822 36.7733 34.955 36.6293 35.237 36.6703C35.912 36.7683 36.595 36.8733 37.174 37.2633C37.978 37.8073 38.832 37.8463 39.736 37.6083C40.763 37.3383 41.687 36.8763 42.504 36.1953C42.783 35.9623 43.072 35.7393 43.371 35.5333C43.717 35.2933 43.927 35.3553 44.158 35.7103C44.536 36.2883 44.579 36.9133 44.461 37.5723C44.39 37.9643 44.331 38.3583 44.283 38.7543C44.226 39.2173 44.44 39.5573 44.832 39.7713C45.098 39.9163 45.392 40.0073 45.672 40.1283C46.177 40.3463 46.684 40.5623 47.182 40.7953C47.327 40.8633 47.464 40.9713 47.574 41.0893C47.944 41.4843 47.865 41.9983 47.371 42.2163C47.066 42.3513 46.725 42.4283 46.392 42.4713C45.951 42.5273 45.502 42.5203 45.056 42.5483C43.991 42.6153 43.033 42.9443 42.265 43.7203C41.896 44.0933 41.626 44.5073 41.554 45.0573C41.481 45.6193 41.122 46.0403 40.674 46.3663C40.542 46.4633 40.349 46.5053 40.179 46.5183C39.6 46.5643 39.059 46.4363 38.582 46.0913C38.429 45.9823 38.279 45.8693 38.135 45.7473C37.655 45.3403 37.099 45.1123 36.477 45.0393C36.349 45.0243 36.22 45.0103 36.092 44.9963C35.62 44.9473 35.235 44.7603 35.02 44.3163ZM35.463 44.0693C35.644 44.2943 35.855 44.3413 36.08 44.3673C36.383 44.4023 36.689 44.4273 36.986 44.4903C37.559 44.6103 38.06 44.8813 38.513 45.2543C38.773 45.4703 39.045 45.6873 39.345 45.8353C39.696 46.0093 40.117 46.0853 40.469 45.9053C40.823 45.7243 41.109 45.3893 41.16 44.9753C41.23 44.4193 41.489 43.9793 41.849 43.5813C42.571 42.7813 43.482 42.3243 44.543 42.1913C45.159 42.1143 45.784 42.1163 46.403 42.0543C46.642 42.0303 46.887 41.9563 47.104 41.8523C47.361 41.7303 47.369 41.5233 47.131 41.3643C46.97 41.2563 46.776 41.1873 46.589 41.1253C46.143 40.9783 45.686 40.8653 45.247 40.7023C44.931 40.5843 44.616 40.4383 44.337 40.2513C43.859 39.9303 43.606 39.4663 43.633 38.8753C43.644 38.6413 43.658 38.4063 43.693 38.1753C43.747 37.8153 43.827 37.4603 43.884 37.1013C43.946 36.7183 43.867 36.3603 43.667 36.0333C43.631 36.0373 43.603 36.0333 43.587 36.0443C43.394 36.1783 43.206 36.3183 43.012 36.4503C42.006 37.1323 40.956 37.7193 39.759 38.0033C38.809 38.2283 37.899 38.2003 37.054 37.6373C36.689 37.3933 36.274 37.2613 35.842 37.1863C35.701 37.1613 35.559 37.1363 35.418 37.1123C35.404 37.1363 35.39 37.1603 35.376 37.1843C35.491 37.3573 35.592 37.5413 35.722 37.7003C35.878 37.8903 36.071 38.0503 36.227 38.2403C36.406 38.4553 36.592 38.6733 36.722 38.9183C37.129 39.6893 37.14 40.4963 36.85 41.3053C36.668 41.8133 36.445 42.3063 36.254 42.8103C36.078 43.2753 35.885 43.7263 35.463 44.0693Z" fill="#AC6B34"/>
<path d="M41.647 38.7671C41.925 38.7421 42.203 38.7151 42.482 38.6911C42.575 38.6831 42.669 38.6761 42.763 38.6801C43.12 38.6961 43.238 38.8041 43.296 39.1591C43.313 39.2631 43.332 39.3671 43.346 39.4721C43.385 39.7671 43.51 40.0151 43.774 40.1651C44.101 40.3521 44.16 40.7371 43.883 41.0701C43.698 41.2941 43.481 41.4611 43.185 41.5121C43.024 41.5401 42.865 41.5831 42.705 41.6201C42.447 41.6811 42.225 41.8061 42.038 41.9931C41.547 42.4811 40.999 42.9121 40.598 43.4861C40.564 43.5341 40.522 43.5781 40.476 43.6131C39.759 44.1421 38.985 44.5041 38.063 44.3601C37.936 44.3401 37.789 44.2611 37.707 44.1621C37.247 43.6121 37.256 42.9981 37.66 42.4131C37.737 42.3021 37.781 42.2081 37.8 42.0841C37.888 41.5161 37.974 40.9481 38.073 40.3821C38.171 39.8211 38.491 39.4561 39.049 39.3001C39.624 39.1391 40.191 38.9471 40.77 38.8011C41.05 38.7301 41.35 38.7341 41.64 38.7031C41.643 38.7251 41.645 38.7461 41.647 38.7671ZM42.934 39.1261C42.691 39.0621 42.515 39.1001 42.339 39.1841C42.192 39.2541 42.04 39.3341 41.882 39.3581C41.325 39.4421 40.767 39.5281 40.206 39.5661C39.766 39.5951 39.354 39.7121 38.937 39.8331C38.718 39.8971 38.559 40.0291 38.49 40.2441C38.391 40.5561 38.285 40.8691 38.224 41.1891C38.101 41.8341 38.006 42.4841 37.902 43.1321C37.883 43.2481 37.868 43.3651 37.868 43.4821C37.868 43.6081 37.924 43.7331 38.057 43.7421C38.348 43.7631 38.651 43.8061 38.928 43.7451C39.267 43.6691 39.587 43.5031 39.907 43.3591C40.021 43.3081 40.124 43.2181 40.215 43.1291C40.71 42.6471 41.202 42.1601 41.692 41.6721C41.975 41.3901 42.309 41.2091 42.7 41.1311C42.838 41.1031 42.978 41.0781 43.112 41.0371C43.347 40.9651 43.521 40.8261 43.594 40.5471C43.115 40.2021 42.976 39.6871 42.934 39.1261ZM37.712 42.7411C37.623 42.8901 37.533 43.0381 37.712 43.2091C37.712 43.0351 37.712 42.8881 37.712 42.7411Z" fill="#AC6B34"/>
<path d="M38.622 42.9162C38.455 42.6492 38.468 42.3772 38.607 42.1132C38.85 41.6462 39.076 41.1662 39.363 40.7282C39.61 40.3512 40.027 40.1622 40.459 40.0942C40.824 40.0372 41.207 40.0482 41.577 40.0852C42.074 40.1342 42.199 40.4502 41.883 40.8332C41.616 41.1582 41.346 41.4902 41.027 41.7602C40.584 42.1362 40.159 42.5422 39.625 42.8062C39.437 42.8992 39.265 42.9522 39.057 42.9202C38.925 42.9002 38.787 42.9162 38.622 42.9162ZM39.109 42.5452C39.216 42.6232 39.325 42.5782 39.434 42.4882C39.82 42.1682 40.23 41.8722 40.591 41.5252C40.907 41.2222 41.17 40.8632 41.462 40.5242C40.739 40.2312 39.761 40.5622 39.513 41.1952C39.463 41.3252 39.373 41.4382 39.308 41.5622C39.271 41.6332 39.237 41.7092 39.224 41.7872C39.182 42.0242 39.151 42.2622 39.109 42.5452Z" fill="#AC6B34"/>
</svg>
