<svg width="185" height="110" viewBox="0 0 185 110" fill="none" xmlns="http://www.w3.org/2000/svg">
<path fill-rule="evenodd" clip-rule="evenodd" d="M0 60.4845L59.0886 0L118.616 41.3789V25.3475H125.15V30.7321L162.045 28.3816L184.843 60.473L178.857 60.4982L159.733 35.5771L143.842 60.4776H123.594L59.0886 8.22777L6.84333 60.4719L0 60.4845Z" fill="white"/>
<path d="M58.6084 32.2002H46.8115V43.9971H58.6084V32.2002Z" fill="#A9ABAE"/>
<path d="M72.5226 32.2002H60.7257V43.9971H72.5226V32.2002Z" fill="#A9ABAE"/>
<path d="M58.6084 46.0776H46.8115V57.8745H58.6084V46.0776Z" fill="#A9ABAE"/>
<path d="M72.5226 46.0776H60.7257V57.8745H72.5226V46.0776Z" fill="#A9ABAE"/>
<path fill-rule="evenodd" clip-rule="evenodd" d="M149.088 60.4949L159.977 42.7476L173.663 60.5475L149.088 60.4949Z" fill="#A9ABAE"/>
<path d="M18.8334 93.201V72.1943H23.6567C24.6079 72.1943 25.4333 72.2984 26.1341 72.5053C26.8337 72.7134 27.4179 73.0335 27.8843 73.4656C28.3508 73.8977 28.6972 74.4465 28.9224 75.1118C29.1464 75.7772 29.2585 76.5603 29.2585 77.4589C29.2585 78.3231 29.151 79.0708 28.9349 79.7019C28.7189 80.3329 28.3896 80.8302 27.9495 81.1938C27.5082 81.5562 26.9423 81.7905 26.2507 81.8934C27.0978 82.0844 27.7803 82.4079 28.2993 82.8663C28.8183 83.3247 29.2025 83.9124 29.454 84.6303C29.7043 85.3471 29.8289 86.208 29.8289 87.2106C29.8289 88.1091 29.7261 88.9311 29.518 89.6742C29.3111 90.4173 28.9864 91.0484 28.5463 91.5674C28.105 92.0864 27.5425 92.4877 26.86 92.7735C26.1775 93.0581 25.3692 93.201 24.4352 93.201H18.8334ZM21.7635 91.1009H23.7344C25.0491 91.1009 25.926 90.7934 26.3673 90.1795C26.8086 89.5656 27.0292 88.5767 27.0292 87.2106C27.0292 86.328 26.9114 85.5895 26.6782 84.9927C26.445 84.3959 26.0735 83.9467 25.5636 83.6448C25.0537 83.3419 24.3655 83.191 23.5012 83.191H21.7635V91.1009ZM21.7635 80.9606H23.5012C24.3312 80.9606 24.9794 80.844 25.447 80.6096C25.9134 80.3764 26.2415 80.0003 26.4324 79.4824C26.6222 78.9634 26.7171 78.2889 26.7171 77.4589C26.7171 76.4906 26.5708 75.7909 26.277 75.3588C25.9831 74.9266 25.5247 74.6534 24.9017 74.5414C24.2797 74.4293 23.4669 74.3733 22.4643 74.3733H21.7635V80.9606Z" fill="white"/>
<path d="M32.4229 93.201V72.1943H35.353V80.9343H36.183C37.7046 80.9343 38.9587 81.1115 39.9442 81.4659C40.9296 81.8203 41.6682 82.4387 42.1609 83.3202C42.6536 84.2016 42.9005 85.4466 42.9005 87.0551C42.9005 88.1434 42.7702 89.0729 42.5118 89.8423C42.2523 90.6116 41.8499 91.2473 41.3057 91.7491C40.7604 92.2499 40.0779 92.618 39.2571 92.8512C38.4351 93.0844 37.4542 93.201 36.3133 93.201H32.4229ZM35.353 91.1009H36.3133C37.1947 91.1009 37.9161 91.0015 38.4786 90.8026C39.0399 90.6036 39.4594 90.2104 39.7361 89.6228C40.0128 89.034 40.1511 88.1697 40.1511 87.0288C40.1511 85.594 39.8744 84.5731 39.3211 83.9684C38.7678 83.3636 37.748 83.0607 36.2607 83.0607H35.353V91.1009ZM45.0784 93.201V72.1943H48.0096V93.201H45.0784Z" fill="white"/>
<path d="M56.5678 93.4344C55.0805 93.4344 53.9269 93.1234 53.105 92.5015C52.2841 91.8785 51.7137 91.0405 51.3936 89.9853C51.0735 88.9312 50.9146 87.7549 50.9146 86.4585V79.0412C50.9146 77.6236 51.0735 76.3878 51.3936 75.3326C51.7137 74.2774 52.2841 73.4612 53.105 72.8815C53.9269 72.3031 55.0805 72.0127 56.5678 72.0127C57.8813 72.0127 58.9228 72.2551 59.6922 72.7398C60.4616 73.2234 61.0149 73.915 61.3522 74.8136C61.6894 75.7133 61.8586 76.7937 61.8586 78.0558V79.7157H59.0829V78.2375C59.0829 77.459 59.044 76.7719 58.9663 76.1752C58.8885 75.5795 58.677 75.1165 58.3306 74.7884C57.9854 74.4592 57.4058 74.2957 56.5941 74.2957C55.7641 74.2957 55.1582 74.4729 54.7786 74.8273C54.3979 75.1817 54.151 75.6824 54.039 76.3306C53.9269 76.98 53.8709 77.7357 53.8709 78.5999V86.9249C53.8709 87.9801 53.9567 88.8135 54.1293 89.4274C54.3031 90.0413 54.5877 90.478 54.9856 90.7375C55.3834 90.997 55.9196 91.1262 56.5941 91.1262C57.3886 91.1262 57.9591 90.949 58.3055 90.5946C58.6507 90.2402 58.8668 89.7521 58.9537 89.129C59.0406 88.5071 59.0829 87.7812 59.0829 86.9512V85.3953H61.8586V86.9512C61.8586 88.2304 61.7031 89.3588 61.391 90.3351C61.0801 91.3126 60.5439 92.0728 59.7837 92.6181C59.0223 93.1623 57.9511 93.4344 56.5678 93.4344Z" fill="white"/>
<path d="M66.9677 93.201V74.3733H63.4146V72.1943H73.3469V74.3733H69.8978V93.201H66.9677Z" fill="white"/>
<path d="M75.3704 93.201V72.1943H80.5823C81.8444 72.1943 82.8516 72.4241 83.6038 72.8814C84.3561 73.3398 84.9048 74.0018 85.2512 74.866C85.5965 75.7303 85.7691 76.7764 85.7691 78.0042C85.7691 79.1097 85.5748 80.07 85.1861 80.8828C84.7974 81.6945 84.2223 82.3221 83.4609 82.7623C82.7007 83.2036 81.7495 83.4242 80.6086 83.4242H78.3004V93.201H75.3704ZM78.3004 81.323H79.6494C80.4966 81.323 81.1619 81.2281 81.6455 81.0383C82.1302 80.8474 82.4755 80.5147 82.6836 80.0391C82.8905 79.5635 82.9945 78.8936 82.9945 78.0293C82.9945 77.0267 82.9213 76.2573 82.7739 75.7212C82.6275 75.185 82.32 74.8135 81.8536 74.6065C81.386 74.3985 80.6601 74.2956 79.6746 74.2956H78.3004V81.323Z" fill="white"/>
<path d="M93.1863 93.4344C91.7687 93.4344 90.6358 93.1577 89.7887 92.6044C88.9415 92.0511 88.3368 91.26 87.9732 90.2322C87.6108 89.2033 87.429 87.9972 87.429 86.6139V78.6525C87.429 77.2692 87.6154 76.0803 87.9869 75.0868C88.3585 74.0922 88.9633 73.3308 89.8024 72.8038C90.6404 72.2768 91.7687 72.0127 93.1863 72.0127C94.6039 72.0127 95.7277 72.2814 96.5577 72.8175C97.3877 73.3526 97.989 74.1139 98.3605 75.0994C98.7321 76.0849 98.9184 77.2692 98.9184 78.6525V86.6402C98.9184 88.0052 98.7321 89.1988 98.3605 90.2185C97.989 91.2394 97.3877 92.0294 96.5577 92.5918C95.7277 93.1532 94.6039 93.4344 93.1863 93.4344ZM93.1863 91.1262C93.9648 91.1262 94.5525 90.9662 94.9503 90.6472C95.3481 90.3271 95.6157 89.8778 95.754 89.2982C95.8923 88.7186 95.9609 88.0407 95.9609 87.2621V78.0558C95.9609 77.2772 95.8923 76.6073 95.754 76.046C95.6157 75.4835 95.3481 75.0514 94.9503 74.7496C94.5525 74.4466 93.9648 74.2957 93.1863 74.2957C92.4089 74.2957 91.8167 74.4466 91.4097 74.7496C91.0039 75.0514 90.7318 75.4835 90.5935 76.046C90.4552 76.6073 90.3854 77.2772 90.3854 78.0558V87.2621C90.3854 88.0407 90.4552 88.7186 90.5935 89.2982C90.7318 89.8778 91.0039 90.3271 91.4097 90.6472C91.8167 90.9662 92.4089 91.1262 93.1863 91.1262Z" fill="white"/>
<path d="M101.797 93.2014V72.1947H104.39V86.7433L110.536 72.1947H112.637V93.2014H110.069V78.4195L103.975 93.2014H101.797ZM107.477 70.561C106.232 70.561 105.354 70.2238 104.844 69.5493C104.334 68.8748 104.079 68.0368 104.079 67.0342H105.686C105.703 67.6561 105.846 68.1362 106.115 68.4735C106.383 68.8107 106.836 68.9788 107.477 68.9788C108.133 68.9788 108.596 68.8062 108.863 68.4598C109.132 68.1145 109.266 67.6389 109.266 67.0342H110.899C110.899 68.0368 110.644 68.8748 110.135 69.5493C109.625 70.2238 108.739 70.561 107.477 70.561Z" fill="white"/>
<path d="M120.521 97.0137V91.1009H121.481C121.775 90.8586 122.064 90.5648 122.35 90.2184C122.635 89.8731 122.903 89.4193 123.154 88.8568C123.404 88.2955 123.633 87.5695 123.841 86.679C124.048 85.7884 124.234 84.6692 124.399 83.3202C124.562 81.9712 124.688 80.3375 124.775 78.4192L125.112 72.1943H133.903V91.1009H135.926V97.0137H133.67L133.436 93.201H123.011L122.777 97.0137H120.521ZM124.204 91.1009H130.998V74.3733H127.601L127.394 79.1188C127.324 80.9857 127.217 82.5554 127.069 83.8255C126.923 85.0967 126.749 86.1428 126.551 86.9636C126.352 87.7856 126.127 88.451 125.877 88.9608C125.625 89.4707 125.358 89.8811 125.073 90.1932C124.787 90.5042 124.498 90.806 124.204 91.1009Z" fill="white"/>
<path d="M143.498 93.4344C142.081 93.4344 140.949 93.1577 140.102 92.6044C139.255 92.0511 138.649 91.26 138.286 90.2322C137.923 89.2033 137.741 87.9972 137.741 86.6139V78.6525C137.741 77.2692 137.927 76.0803 138.299 75.0868C138.671 74.0922 139.275 73.3308 140.114 72.8038C140.952 72.2768 142.081 72.0127 143.498 72.0127C144.916 72.0127 146.04 72.2814 146.87 72.8175C147.7 73.3526 148.301 74.1139 148.673 75.0994C149.044 76.0849 149.231 77.2692 149.231 78.6525V86.6402C149.231 88.0052 149.044 89.1988 148.673 90.2185C148.301 91.2394 147.7 92.0294 146.87 92.5918C146.04 93.1532 144.916 93.4344 143.498 93.4344ZM143.498 91.1262C144.277 91.1262 144.865 90.9662 145.262 90.6472C145.66 90.3271 145.928 89.8778 146.066 89.2982C146.204 88.7186 146.274 88.0407 146.274 87.2621V78.0558C146.274 77.2772 146.204 76.6073 146.066 76.046C145.928 75.4835 145.66 75.0514 145.262 74.7496C144.865 74.4466 144.277 74.2957 143.498 74.2957C142.721 74.2957 142.129 74.4466 141.722 74.7496C141.316 75.0514 141.044 75.4835 140.906 76.046C140.767 76.6073 140.697 77.2772 140.697 78.0558V87.2621C140.697 88.0407 140.767 88.7186 140.906 89.2982C141.044 89.8778 141.316 90.3271 141.722 90.6472C142.129 90.9662 142.721 91.1262 143.498 91.1262Z" fill="white"/>
<path d="M152.057 93.201L152.446 72.1943H155.325L159.034 89.2329L162.767 72.1943H165.621L166.01 93.201H163.65L163.417 77.9516L159.864 93.201H158.204L154.677 77.9516L154.442 93.201H152.057Z" fill="white"/>
<path fill-rule="evenodd" clip-rule="evenodd" d="M0.584198 109.532L4.74095 102.332H12.4566L8.2998 109.532H0.584198ZM12.0633 109.532L16.22 102.332H23.9368L19.78 109.532H12.0633ZM23.5435 109.532L27.7003 102.332H35.4159L31.2591 109.532H23.5435ZM35.0238 109.532L39.1805 102.332H46.8961L42.7394 109.532H35.0238ZM46.5029 109.532L50.6596 102.332H58.3752L54.2196 109.532H46.5029ZM57.9831 109.532L62.1398 102.332H69.8555L65.6987 109.532H57.9831ZM69.4633 109.532L73.6189 102.332H81.3357L77.1789 109.532H69.4633ZM80.9424 109.532L85.0992 102.332H92.8148L88.658 109.532H80.9424ZM92.4227 109.532L96.5794 102.332H104.295L100.138 109.532H92.4227ZM103.902 109.532L108.059 102.332H115.774L111.618 109.532H103.902ZM115.382 109.532L119.539 102.332H127.254L123.098 109.532H115.382ZM126.862 109.532L131.018 102.332H138.735L134.578 109.532H126.862ZM138.341 109.532L142.498 102.332H150.214L146.058 109.532H138.341ZM149.822 109.532L153.978 102.332H161.694L157.537 109.532H149.822ZM161.301 109.532L165.457 102.332H173.174L169.017 109.532H161.301ZM172.781 109.532L176.938 102.332H184.653L180.496 109.532H172.781Z" fill="white"/>
</svg>
