<svg xmlns="http://www.w3.org/2000/svg" viewBox="0 0 100.8 100.8"><path d="M55.2 66.8c-.4-.7-1.4-1-2-.5l-9.8 6c-3.2 2-7.8 1-9.7-2.1L20.4 48.7a6.6 6.6 0 0 1 2.2-9.2l10.1-6.3c.7-.4 1-1.4.5-2l-8.4-13.7c-.5-.7-1.4-1-2-.5l-10.2 6.3c-11.3 7-10.9 25.2 1 44.4a56.5 56.5 0 0 0 19.2 19.8c4.1 2.3 8.2 3.4 12 3.4 3 0 6-.8 8.6-2.4l9.7-6c.7-.4 1-1.4.5-2l-8.4-13.7zm-3.4 19.1c-6 3.8-12.9 1.5-17.5-1A53.5 53.5 0 0 1 16 66.1c-11-17.8-11.7-34.3-2-40.4l9-5.4 6.8 11-9 5.5a9.6 9.6 0 0 0-3 13.3L31 71.8c2.8 4.5 9.3 6 13.8 3l8.5-5.1 6.9 11-8.5 5.2zM90 9H49.3c-3 0-5.6 2.6-5.6 5.7v24.4c0 3.1 2.5 5.6 5.6 5.6h4.8v10a1.5 1.5 0 0 0 2.5 1.1l12.2-11H90c3 0 5.6-2.6 5.6-5.7V14.7c0-3-2.5-5.6-5.6-5.6zm2.6 30.1c0 1.5-1.2 2.7-2.6 2.7H68.2c-.4 0-.7 0-1 .3l-10 9.2v-8c0-.9-.8-1.5-1.6-1.5h-6.3a2.6 2.6 0 0 1-2.6-2.7V14.7c0-1.4 1.2-2.6 2.6-2.6H90c1.4 0 2.6 1.2 2.6 2.6v24.4z"/><path d="M57.9 21.8a3.8 3.8 0 1 0 0 7.6c2.1 0 3.8-1.7 3.8-3.8 0-1-.4-2-1-2.7a3.7 3.7 0 0 0-2.8-1.1zm0 4.6a.8.8 0 0 1-.8-.8c0-.2 0-.4.2-.6l.6-.2c.2 0 .4 0 .6.2l.2.6c0 .4-.3.8-.8.8zM69.2 21.8a3.8 3.8 0 1 0 0 7.6A3.8 3.8 0 0 0 72 23a3.9 3.9 0 0 0-2.7-1.1zm.8 3.8c0 .4-.3.8-.8.8a.8.8 0 0 1-.8-.8c0-.2 0-.4.2-.6l.6-.2c.2 0 .4 0 .6.2l.2.6zM80.5 21.8a3.8 3.8 0 1 0 0 7.6c2.1 0 3.9-1.7 3.8-3.8 0-1-.4-2-1-2.7a3.8 3.8 0 0 0-2.8-1.1zm.8 3.8c0 .4-.3.8-.8.8a.8.8 0 0 1-.8-.8c0-.2 0-.4.2-.6l.6-.2c.2 0 .4 0 .6.2l.2.6z"/></svg>