<svg width="185" height="111" viewBox="0 0 185 111" fill="none" xmlns="http://www.w3.org/2000/svg">
<path fill-rule="evenodd" clip-rule="evenodd" d="M0.156982 61.2813L59.2456 0.796844L118.773 42.1758V26.1444H125.307V31.5289L162.202 29.1785L185 61.2699L179.014 61.295L159.89 36.3739L143.999 61.2744H123.751L59.2456 9.02461L7.00031 61.2687L0.156982 61.2813Z" fill="#4E9200"/>
<path d="M58.7654 32.9968H46.9685V44.7937H58.7654V32.9968Z" fill="#A9ABAE"/>
<path d="M72.6796 32.9968H60.8827V44.7937H72.6796V32.9968Z" fill="#A9ABAE"/>
<path d="M58.7654 46.8744H46.9685V58.6713H58.7654V46.8744Z" fill="#A9ABAE"/>
<path d="M72.6796 46.8744H60.8827V58.6713H72.6796V46.8744Z" fill="#A9ABAE"/>
<path fill-rule="evenodd" clip-rule="evenodd" d="M149.245 61.2916L160.134 43.5442L173.82 61.3442L149.245 61.2916Z" fill="#A9ABAE"/>
<path d="M18.9904 93.998V72.9913H23.8137C24.7648 72.9913 25.5902 73.0954 26.291 73.3023C26.9907 73.5103 27.5749 73.8305 28.0413 74.2626C28.5077 74.6947 28.8541 75.2435 29.0794 75.9088C29.3034 76.5742 29.4155 77.3573 29.4155 78.2559C29.4155 79.1201 29.308 79.8678 29.0919 80.4989C28.8759 81.1299 28.5466 81.6272 28.1065 81.9908C27.6652 82.3532 27.0993 82.5875 26.4077 82.6904C27.2548 82.8813 27.9373 83.2049 28.4563 83.6633C28.9753 84.1217 29.3595 84.7094 29.611 85.4273C29.8613 86.1441 29.9859 87.0049 29.9859 88.0075C29.9859 88.9061 29.883 89.7281 29.675 90.4712C29.4681 91.2143 29.1434 91.8453 28.7032 92.3644C28.262 92.8834 27.6995 93.2847 27.017 93.5705C26.3345 93.8551 25.5262 93.998 24.5922 93.998H18.9904ZM21.9205 91.8979H23.8914C25.2061 91.8979 26.083 91.5904 26.5243 90.9765C26.9655 90.3626 27.1862 89.3737 27.1862 88.0075C27.1862 87.125 27.0684 86.3865 26.8352 85.7897C26.602 85.1929 26.2305 84.7436 25.7206 84.4418C25.2107 84.1389 24.5225 83.988 23.6582 83.988H21.9205V91.8979ZM21.9205 81.7576H23.6582C24.4882 81.7576 25.1364 81.6409 25.604 81.4066C26.0704 81.1734 26.3985 80.7972 26.5894 80.2794C26.7792 79.7603 26.8741 79.0858 26.8741 78.2559C26.8741 77.2876 26.7278 76.5879 26.4339 76.1558C26.1401 75.7236 25.6817 75.4504 25.0586 75.3384C24.4367 75.2263 23.6239 75.1703 22.6213 75.1703H21.9205V81.7576Z" fill="#373435"/>
<path d="M32.5799 93.998V72.9913H35.51V81.7313H36.34C37.8616 81.7313 39.1157 81.9085 40.1012 82.2629C41.0866 82.6173 41.8251 83.2357 42.3179 84.1172C42.8106 84.9986 43.0575 86.2436 43.0575 87.8521C43.0575 88.9404 42.9272 89.8699 42.6688 90.6392C42.4093 91.4086 42.0069 92.0443 41.4627 92.5461C40.9174 93.0469 40.2349 93.415 39.4141 93.6482C38.5921 93.8814 37.6112 93.998 36.4703 93.998H32.5799ZM35.51 91.8979H36.4703C37.3517 91.8979 38.0731 91.7985 38.6356 91.5996C39.1969 91.4006 39.6164 91.0074 39.8931 90.4197C40.1698 89.831 40.3081 88.9667 40.3081 87.8258C40.3081 86.391 40.0314 85.3701 39.4781 84.7654C38.9248 84.1606 37.905 83.8577 36.4177 83.8577H35.51V91.8979ZM45.2354 93.998V72.9913H48.1666V93.998H45.2354Z" fill="#373435"/>
<path d="M56.7248 94.2312C55.2374 94.2312 54.0839 93.9203 53.2619 93.2984C52.4411 92.6753 51.8706 91.8373 51.5505 90.7821C51.2304 89.7281 51.0715 88.5517 51.0715 87.2553V79.8381C51.0715 78.4205 51.2304 77.1847 51.5505 76.1295C51.8706 75.0743 52.4411 74.258 53.2619 73.6784C54.0839 73.0999 55.2374 72.8095 56.7248 72.8095C58.0383 72.8095 59.0798 73.0519 59.8492 73.5366C60.6186 74.0202 61.1719 74.7119 61.5091 75.6104C61.8464 76.5102 62.0156 77.5905 62.0156 78.8526V80.5126H59.2398V79.0344C59.2398 78.2559 59.201 77.5688 59.1232 76.972C59.0455 76.3764 58.834 75.9134 58.4876 75.5853C58.1423 75.256 57.5627 75.0926 56.751 75.0926C55.9211 75.0926 55.3152 75.2698 54.9356 75.6242C54.5549 75.9786 54.308 76.4793 54.1959 77.1275C54.0839 77.7768 54.0279 78.5325 54.0279 79.3968V87.7217C54.0279 88.7769 54.1136 89.6103 54.2863 90.2242C54.46 90.8382 54.7447 91.2749 55.1425 91.5344C55.5404 91.7939 56.0765 91.9231 56.751 91.9231C57.5456 91.9231 58.1161 91.7459 58.4625 91.3915C58.8077 91.0371 59.0238 90.5489 59.1107 89.9259C59.1975 89.3039 59.2398 88.578 59.2398 87.748V86.1921H62.0156V87.748C62.0156 89.0273 61.8601 90.1557 61.548 91.132C61.2371 92.1094 60.7009 92.8697 59.9406 93.415C59.1793 93.9592 58.1081 94.2312 56.7248 94.2312Z" fill="#373435"/>
<path d="M67.1247 93.998V75.1703H63.5715V72.9913H73.5038V75.1703H70.0547V93.998H67.1247Z" fill="#373435"/>
<path d="M75.5273 93.998V72.9913H80.7393C82.0014 72.9913 83.0086 73.2211 83.7608 73.6784C84.5131 74.1368 85.0618 74.7988 85.4082 75.663C85.7535 76.5273 85.9261 77.5734 85.9261 78.8012C85.9261 79.9067 85.7317 80.867 85.3431 81.6798C84.9544 82.4915 84.3793 83.1191 83.6179 83.5593C82.8577 84.0006 81.9065 84.2212 80.7656 84.2212H78.4574V93.998H75.5273ZM78.4574 82.12H79.8064C80.6536 82.12 81.3189 82.0251 81.8025 81.8353C82.2872 81.6444 82.6325 81.3117 82.8405 80.8361C83.0475 80.3605 83.1515 79.6906 83.1515 78.8263C83.1515 77.8237 83.0783 77.0543 82.9309 76.5182C82.7845 75.982 82.477 75.6104 82.0106 75.4035C81.543 75.1955 80.817 75.0926 79.8316 75.0926H78.4574V82.12Z" fill="#373435"/>
<path d="M93.3433 94.2312C91.9257 94.2312 90.7928 93.9546 89.9456 93.4013C89.0985 92.8479 88.4937 92.0568 88.1302 91.0291C87.7678 90.0002 87.586 88.7941 87.586 87.4108V79.4494C87.586 78.0661 87.7724 76.8771 88.1439 75.8837C88.5155 74.8891 89.1202 74.1277 89.9594 73.6006C90.7973 73.0736 91.9257 72.8095 93.3433 72.8095C94.7609 72.8095 95.8847 73.0782 96.7147 73.6144C97.5446 74.1494 98.146 74.9108 98.5175 75.8962C98.8891 76.8817 99.0754 78.0661 99.0754 79.4494V87.4371C99.0754 88.8021 98.8891 89.9956 98.5175 91.0154C98.146 92.0363 97.5446 92.8262 96.7147 93.3887C95.8847 93.95 94.7609 94.2312 93.3433 94.2312ZM93.3433 91.9231C94.1218 91.9231 94.7094 91.763 95.1073 91.4441C95.5051 91.124 95.7726 90.6747 95.911 90.0951C96.0493 89.5154 96.1179 88.8375 96.1179 88.059V78.8526C96.1179 78.0741 96.0493 77.4042 95.911 76.8428C95.7726 76.2804 95.5051 75.8482 95.1073 75.5464C94.7094 75.2435 94.1218 75.0926 93.3433 75.0926C92.5659 75.0926 91.9737 75.2435 91.5667 75.5464C91.1609 75.8482 90.8888 76.2804 90.7505 76.8428C90.6121 77.4042 90.5424 78.0741 90.5424 78.8526V88.059C90.5424 88.8375 90.6121 89.5154 90.7505 90.0951C90.8888 90.6747 91.1609 91.124 91.5667 91.4441C91.9737 91.763 92.5659 91.9231 93.3433 91.9231Z" fill="#373435"/>
<path d="M101.954 93.998V72.9913H104.547V87.54L110.693 72.9913H112.794V93.998H110.226V79.2162L104.132 93.998H101.954ZM107.634 71.3577C106.389 71.3577 105.511 71.0204 105.001 70.3459C104.491 69.6714 104.236 68.8334 104.236 67.8308H105.843C105.86 68.4527 106.003 68.9329 106.272 69.2701C106.54 69.6074 106.993 69.7754 107.634 69.7754C108.29 69.7754 108.753 69.6028 109.02 69.2564C109.289 68.9112 109.423 68.4356 109.423 67.8308H111.056C111.056 68.8334 110.801 69.6714 110.292 70.3459C109.782 71.0204 108.896 71.3577 107.634 71.3577Z" fill="#373435"/>
<path d="M120.678 97.8107V91.8979H121.638C121.932 91.6556 122.221 91.3618 122.507 91.0154C122.792 90.6701 123.06 90.2163 123.311 89.6538C123.561 89.0925 123.79 88.3665 123.998 87.476C124.205 86.5854 124.391 85.4662 124.556 84.1172C124.719 82.7682 124.845 81.1345 124.932 79.2162L125.269 72.9913H134.06V91.8979H136.083V97.8107H133.827L133.593 93.998H123.168L122.934 97.8107H120.678ZM124.361 91.8979H131.155V75.1703H127.758L127.551 79.9158C127.481 81.7827 127.374 83.3523 127.226 84.6225C127.08 85.8937 126.906 86.9398 126.708 87.7606C126.509 88.5826 126.284 89.2479 126.034 89.7578C125.782 90.2677 125.515 90.6781 125.23 90.9902C124.944 91.3012 124.655 91.603 124.361 91.8979Z" fill="#373435"/>
<path d="M143.655 94.2312C142.238 94.2312 141.106 93.9546 140.259 93.4013C139.412 92.8479 138.806 92.0568 138.443 91.0291C138.08 90.0002 137.898 88.7941 137.898 87.4108V79.4494C137.898 78.0661 138.084 76.8771 138.456 75.8837C138.828 74.8891 139.432 74.1277 140.271 73.6006C141.109 73.0736 142.238 72.8095 143.655 72.8095C145.073 72.8095 146.197 73.0782 147.027 73.6144C147.857 74.1494 148.458 74.9108 148.83 75.8962C149.201 76.8817 149.387 78.0661 149.387 79.4494V87.4371C149.387 88.8021 149.201 89.9956 148.83 91.0154C148.458 92.0363 147.857 92.8262 147.027 93.3887C146.197 93.95 145.073 94.2312 143.655 94.2312ZM143.655 91.9231C144.434 91.9231 145.022 91.763 145.419 91.4441C145.817 91.124 146.085 90.6747 146.223 90.0951C146.361 89.5154 146.431 88.8375 146.431 88.059V78.8526C146.431 78.0741 146.361 77.4042 146.223 76.8428C146.085 76.2804 145.817 75.8482 145.419 75.5464C145.022 75.2435 144.434 75.0926 143.655 75.0926C142.878 75.0926 142.286 75.2435 141.879 75.5464C141.473 75.8482 141.201 76.2804 141.063 76.8428C140.924 77.4042 140.854 78.0741 140.854 78.8526V88.059C140.854 88.8375 140.924 89.5154 141.063 90.0951C141.201 90.6747 141.473 91.124 141.879 91.4441C142.286 91.763 142.878 91.9231 143.655 91.9231Z" fill="#373435"/>
<path d="M152.214 93.998L152.603 72.9913H155.482L159.191 90.0299L162.924 72.9913H165.778L166.167 93.998H163.807L163.574 78.7486L160.021 93.998H158.361L154.834 78.7486L154.599 93.998H152.214Z" fill="#373435"/>
<path fill-rule="evenodd" clip-rule="evenodd" d="M0.741173 110.329L4.89793 103.129H12.6135L8.45678 110.329H0.741173ZM12.2203 110.329L16.377 103.129H24.0938L19.937 110.329H12.2203ZM23.7005 110.329L27.8573 103.129H35.5729L31.4161 110.329H23.7005ZM35.1807 110.329L39.3375 103.129H47.0531L42.8963 110.329H35.1807ZM46.6598 110.329L50.8166 103.129H58.5322L54.3766 110.329H46.6598ZM58.1401 110.329L62.2968 103.129H70.0124L65.8557 110.329H58.1401ZM69.6203 110.329L73.7759 103.129H81.4927L77.3359 110.329H69.6203ZM81.0994 110.329L85.2561 103.129H92.9718L88.815 110.329H81.0994ZM92.5796 110.329L96.7364 103.129H104.452L100.295 110.329H92.5796ZM104.059 110.329L108.215 103.129H115.931L111.775 110.329H104.059ZM115.539 110.329L119.696 103.129H127.411L123.255 110.329H115.539ZM127.019 110.329L131.175 103.129H138.892L134.735 110.329H127.019ZM138.498 110.329L142.655 103.129H150.371L146.215 110.329H138.498ZM149.979 110.329L154.135 103.129H161.851L157.694 110.329H149.979ZM161.458 110.329L165.614 103.129H173.331L169.174 110.329H161.458ZM172.938 110.329L177.095 103.129H184.81L180.653 110.329H172.938Z" fill="#4E9200"/>
</svg>
